<svg width="354" height="220" viewBox="0 0 354 220" fill="none" xmlns="http://www.w3.org/2000/svg">
<path d="M99.7648 80.6791C99.7648 85.0239 100.236 88.5467 101.06 91.13C102.002 93.7134 103.179 96.5316 104.827 99.5847C105.416 100.524 105.652 101.464 105.652 102.286C105.652 103.46 104.945 104.634 103.415 105.808L95.9972 110.74C94.9376 111.445 93.878 111.797 92.9361 111.797C91.7587 111.797 90.5814 111.21 89.404 110.153C87.7557 108.392 86.3429 106.513 85.1655 104.634C83.9881 102.638 82.8108 100.407 81.5157 97.7059C72.3322 108.509 60.794 113.911 46.9011 113.911C37.0112 113.911 29.1229 111.092 23.3538 105.456C17.5847 99.8196 14.6413 92.3043 14.6413 82.9102C14.6413 72.929 18.1734 64.8266 25.3553 58.7205C32.5372 52.6143 42.0739 49.5613 54.2008 49.5613C58.2038 49.5613 62.3246 49.9135 66.6808 50.5007C71.0371 51.0878 75.5111 52.0272 80.2206 53.084V44.5119C80.2206 35.5876 78.3368 29.364 74.6869 25.7238C70.9194 22.0836 64.5616 20.3222 55.4959 20.3222C51.3751 20.3222 47.1366 20.7919 42.7803 21.8487C38.4241 22.9056 34.1856 24.1973 30.0648 25.8412C28.181 26.6632 26.7682 27.1329 25.944 27.3678C25.1198 27.6026 24.5312 27.72 24.0602 27.72C22.4119 27.72 21.5877 26.5458 21.5877 24.0798V18.326C21.5877 16.4471 21.8232 15.038 22.4119 14.2161C23.0006 13.3941 24.0602 12.5721 25.7085 11.7501C29.8293 9.63644 34.7742 7.87506 40.5433 6.46594C46.3124 4.93941 52.4347 4.23485 58.9102 4.23485C72.9209 4.23485 83.164 7.40535 89.7572 13.7464C96.2327 20.0874 99.5293 29.7163 99.5293 42.6331V80.6791H99.7648ZM51.9638 98.5279C55.8491 98.5279 59.8521 97.8233 64.0906 96.4142C68.3292 95.0051 72.0967 92.4217 75.2756 88.8989C77.1594 86.6679 78.5722 84.2019 79.2787 81.3837C79.9851 78.5655 80.456 75.1601 80.456 71.1676V66.2357C77.0417 65.4138 73.3918 64.7092 69.6243 64.2395C65.8567 63.7698 62.2069 63.5349 58.557 63.5349C50.6687 63.5349 44.8996 65.0615 41.0143 68.232C37.129 71.4025 35.2452 75.8647 35.2452 81.736C35.2452 87.255 36.658 91.3649 39.6014 94.1831C42.4271 97.1188 46.5479 98.5279 51.9638 98.5279ZM146.506 111.21C144.387 111.21 142.974 110.858 142.032 110.036C141.09 109.331 140.266 107.687 139.56 105.456L111.892 14.6858C111.185 12.3372 110.832 10.8107 110.832 9.98872C110.832 8.10991 111.774 7.05307 113.658 7.05307H125.196C127.433 7.05307 128.963 7.40535 129.788 8.22733C130.73 8.93189 131.436 10.5759 132.142 12.8069L151.922 90.5429L170.289 12.8069C170.878 10.4584 171.584 8.93189 172.526 8.22733C173.468 7.52278 175.116 7.05307 177.235 7.05307H186.654C188.891 7.05307 190.422 7.40535 191.364 8.22733C192.306 8.93189 193.13 10.5759 193.601 12.8069L212.203 91.4823L232.572 12.8069C233.278 10.4584 234.102 8.93189 234.926 8.22733C235.868 7.52278 237.399 7.05307 239.518 7.05307H250.468C252.351 7.05307 253.411 7.99248 253.411 9.98872C253.411 10.5759 253.293 11.163 253.176 11.8675C253.058 12.5721 252.822 13.5115 252.351 14.8032L223.977 105.573C223.27 107.922 222.446 109.448 221.504 110.153C220.563 110.858 219.032 111.327 217.03 111.327H206.905C204.668 111.327 203.138 110.975 202.196 110.153C201.254 109.331 200.43 107.805 199.959 105.456L181.709 29.7163L163.578 105.339C162.989 107.687 162.283 109.214 161.341 110.036C160.399 110.858 158.751 111.21 156.632 111.21H146.506ZM297.798 114.38C291.675 114.38 285.553 113.676 279.666 112.267C273.779 110.858 269.188 109.331 266.127 107.57C264.243 106.513 262.948 105.339 262.477 104.282C262.006 103.225 261.77 102.051 261.77 100.994V95.0051C261.77 92.5391 262.712 91.3649 264.478 91.3649C265.185 91.3649 265.891 91.4823 266.598 91.7172C267.304 91.952 268.364 92.4217 269.541 92.8914C273.544 94.6528 277.9 96.0619 282.492 97.0013C287.201 97.9407 291.793 98.4104 296.503 98.4104C303.92 98.4104 309.689 97.1188 313.692 94.5354C317.695 91.952 319.814 88.1944 319.814 83.3799C319.814 80.092 318.755 77.3912 316.636 75.1601C314.516 72.929 310.513 70.9328 304.744 69.054L287.672 63.7698C279.078 61.069 272.72 57.0765 268.835 51.7924C264.949 46.6256 262.948 40.8717 262.948 34.7656C262.948 29.8337 264.007 25.4889 266.127 21.7313C268.246 17.9737 271.072 14.6858 274.604 12.1024C278.136 9.40159 282.139 7.40535 286.848 5.99624C291.558 4.58713 296.503 4 301.683 4C304.273 4 306.981 4.11743 309.571 4.4697C312.279 4.82198 314.752 5.29168 317.224 5.76139C319.579 6.34852 321.816 6.93565 323.935 7.6402C326.054 8.34476 327.703 9.04931 328.88 9.75387C330.528 10.6933 331.706 11.6327 332.412 12.6895C333.119 13.6289 333.472 14.9206 333.472 16.5646V22.0836C333.472 24.5495 332.53 25.8412 330.764 25.8412C329.822 25.8412 328.291 25.3715 326.29 24.4321C319.579 21.379 312.044 19.8525 303.685 19.8525C296.974 19.8525 291.675 20.9093 288.026 23.1404C284.376 25.3715 282.492 28.7769 282.492 33.5913C282.492 36.8793 283.669 39.6975 286.024 41.9286C288.379 44.1597 292.735 46.3908 298.975 48.387L315.694 53.6712C324.171 56.372 330.293 60.1296 333.943 64.9441C337.593 69.7585 339.359 75.2775 339.359 81.3837C339.359 86.433 338.299 91.0126 336.298 95.0051C334.178 98.9976 331.353 102.52 327.703 105.339C324.053 108.274 319.697 110.388 314.634 111.914C309.336 113.558 303.802 114.38 297.798 114.38Z" fill="white"/>
<path d="M290.847 151.473C303.445 149.946 331.231 146.658 336.176 152.999C341.121 159.223 330.642 185.409 325.933 197.034C324.52 200.557 327.581 201.966 330.76 199.265C351.482 181.886 356.898 145.601 352.659 140.317C348.421 135.15 312.04 130.688 289.905 146.188C286.491 148.654 287.08 151.942 290.847 151.473Z" fill="white"/>
<path d="M176.643 215C225.032 215 281.31 199.852 320.046 171.318C326.403 166.621 320.87 159.458 314.394 162.393C270.95 180.712 223.737 189.636 180.763 189.636C117.068 189.636 55.4916 172.14 5.57131 143.253C1.21506 140.669 -2.08156 145.132 1.56827 148.42C47.721 189.988 108.826 215 176.643 215Z" fill="white"/>
</svg>
