<svg width="250" height="144" viewBox="0 0 250 144" fill="none" xmlns="http://www.w3.org/2000/svg">
<path fill-rule="evenodd" clip-rule="evenodd" d="M65.8894 20.5422C65.8894 16.9332 68.7678 14 72.3279 14C73.9217 14 75.4189 14.5932 76.574 15.6243L76.735 15.774L76.7757 15.7445C77.6886 15.081 78.7713 14.689 79.9153 14.6327L80.2026 14.6256C82.0436 14.6256 83.7344 15.4952 84.8497 16.9239L84.921 17.019L85.0229 16.9875C85.5437 16.8345 86.0832 16.7432 86.6328 16.7171L86.9637 16.7092C90.8562 16.7092 94 19.9454 94 23.923C94 27.9009 90.8563 31.1372 86.9643 31.1372C86.8474 31.1373 86.7307 31.1343 86.6141 31.1285L86.266 31.101L86.1011 31.317C85.1412 32.5026 83.7238 33.2457 82.1703 33.3173L81.9233 33.323C81.5065 33.323 81.096 33.2747 80.698 33.1809L80.472 33.12L80.3198 33.3557C79.2607 34.9114 77.5321 35.9137 75.6106 35.9947L75.3584 36C73.1346 36 71.1435 34.765 70.095 32.8638L70.023 32.727L69.9706 32.7314L69.6735 32.7393C66.5331 32.7393 64 30.1275 64 26.9204C64 25.1619 64.7681 23.5371 66.0429 22.4484L66.145 22.364L66.0978 22.1975C65.9877 21.769 65.9204 21.328 65.8979 20.8797L65.8894 20.5422ZM75.8517 17.781C75.0152 16.6649 73.7254 16 72.3279 16C69.8809 16 67.8894 18.0294 67.8894 20.5422C67.8894 21.1748 68.0157 21.7879 68.257 22.3544L68.5991 23.1578L67.8492 23.6051C66.7162 24.2809 66 25.5335 66 26.9204C66 29.0364 67.6516 30.7393 69.6734 30.7393C69.9288 30.7393 70.1789 30.7125 70.4221 30.6598L71.2772 30.4745L71.5744 31.2973C72.1574 32.911 73.66 34 75.3584 34C76.9864 34 78.4384 33.0002 79.0697 31.485L79.481 30.4978L80.4384 30.9743C80.8975 31.2028 81.4013 31.323 81.9233 31.323C83.1669 31.323 84.2948 30.6331 84.8982 29.5348L85.2536 28.8879L85.9764 29.0369C86.3013 29.1038 86.6318 29.1374 86.9637 29.1372C89.7385 29.1372 92 26.8091 92 23.923C92 21.0372 89.7385 18.7092 86.9637 18.7092C86.2558 18.7092 85.57 18.8601 84.9371 19.1486L84.0931 19.5335L83.646 18.7207C82.9364 17.4305 81.6336 16.6256 80.2026 16.6256C79.1296 16.6256 78.1243 17.0754 77.3804 17.8664L76.5653 18.7331L75.8517 17.781ZM101.785 50.3809L92.318 38.3726L90.7474 39.6108L100.215 51.6191L101.785 50.3809ZM155.771 40.6369L154.229 39.3631L135.229 62.3631L136.771 63.6369L155.771 40.6369ZM98.6536 73.7568L97.3464 72.2432L75.3464 91.2432L76.6536 92.7568L98.6536 73.7568ZM137.872 90.5097L146.872 106.51L145.128 107.49L136.128 91.4903L137.872 90.5097ZM139.135 76.1592L132.1 69.4669L130.721 70.9161L135.995 75.9319H119.808V77.9319L136.152 77.9315L130.689 83.6269L132.132 85.0114L139.218 77.6242L139.292 77.539C139.639 77.0912 139.524 76.484 139.135 76.1592ZM152.129 111.114L143.537 115.606C143.092 115.839 142.923 116.323 143.032 116.746C143.011 116.826 143 116.912 143 117L143.004 126.902C143.004 127.262 143.198 127.594 143.511 127.772L152.498 132.87C152.659 132.961 152.829 133.002 152.994 133.001C153.162 133.003 153.334 132.961 153.497 132.868L162.492 127.721C162.803 127.543 162.995 127.212 162.995 126.854L163 117C163 116.914 162.989 116.83 162.969 116.752C163.077 116.32 162.898 115.825 162.432 115.602L153.024 111.098C152.74 110.962 152.408 110.968 152.129 111.114ZM152.612 113.117L159.676 116.499L152.551 119.881L146.149 116.497L152.612 113.117ZM160.999 118.604L160.995 126.273L154 130.275V122.041L160.999 118.604ZM151.999 122.057L145 118.607L145.004 126.319L151.992 130.284L151.999 122.057ZM160.034 17.7315L161.966 18.2481L161.019 21.7912L163.5 26.7537L165.945 21.863L165.03 18.2343L166.97 17.7453L167.729 20.7578L170.739 19.9432L171.261 21.8737L167.693 22.8405L165.618 26.9898H169.55L172.298 24.2781L173.702 25.7015L171.414 27.9598L173.712 30.2872L172.288 31.6924L169.62 28.9898H165.618L167.103 31.9598L171.272 33.136L170.728 35.0608L167.774 34.2268L166.966 37.2484L165.034 36.7312L165.808 33.8414L163.5 29.2259L161.223 33.7794L161.97 36.7457L160.03 37.2339L159.271 34.2208L156.261 35.0364L155.739 33.1059L159.885 31.983L161.382 28.9898H157.449L154.705 31.7011L153.299 30.2785L155.586 28.0188L153.288 25.6925L154.712 24.2871L157.381 26.9898H161.382L159.315 22.8551L155.729 21.8437L156.271 19.9187L159.226 20.7518L160.034 17.7315ZM61.8356 95.0136L43.8356 98.0136C43.3534 98.094 43 98.5112 43 99V118C43 118.489 43.3534 118.906 43.8356 118.986L61.8356 121.986C62.4451 122.088 63 121.618 63 121V120.042H74L74.1166 120.035C74.614 119.977 75 119.554 75 119.042V98.9585L74.9933 98.8419C74.9355 98.3445 74.5128 97.9585 74 97.9585H63V96C63 95.3821 62.4451 94.912 61.8356 95.0136ZM63 99.9585V101.938H66.0001V103.938H63V105.959H65.8751V107.959H63V109.979H65.8751V111.979H63V113.917H66.0001V115.917H63V118.041L73 118.041V99.958L63 99.9585ZM61 97.18V119.819L45 117.152V99.847L61 97.18ZM54.2939 108.234L57.47 112.102L55.9243 113.371L53 109.81L50.0757 113.371L48.5299 112.102L51.7061 108.234L48.5303 104.366L50.076 103.097L53 106.658L55.9239 103.097L57.4697 104.366L54.2939 108.234ZM72 101.938V103.938H68V101.938H72ZM71.8751 107.959V105.959H68.1411V107.959H71.8751ZM71.8751 109.979V111.979H68.1411V109.979H71.8751ZM72.0001 115.917V113.917H68.2661V115.917H72.0001ZM205.073 63.0263V56.3263C205.073 55.774 205.521 55.3263 206.073 55.3263H212.773C213.325 55.3263 213.773 55.774 213.773 56.3263V63.0263C213.773 63.5786 213.325 64.0263 212.773 64.0263H206.073C205.521 64.0263 205.073 63.5786 205.073 63.0263ZM211.773 57.3265H207.073V62.0265H211.773V57.3265ZM148.704 70.429V63.729C148.704 63.1767 149.151 62.729 149.704 62.729H156.403C156.956 62.729 157.403 63.1767 157.403 63.729V70.429C157.403 70.9813 156.956 71.429 156.403 71.429H149.704C149.151 71.429 148.704 70.9813 148.704 70.429ZM155.403 64.7295H150.704V69.4295H155.403V64.7295ZM170.521 76.6385V69.9385C170.521 69.3862 170.968 68.9385 171.521 68.9385H178.221C178.773 68.9385 179.221 69.3862 179.221 69.9385V76.6385C179.221 77.1908 178.773 77.6385 178.221 77.6385H171.521C170.968 77.6385 170.521 77.1908 170.521 76.6385ZM177.22 70.9392H172.52V75.6392H177.22V70.9392ZM188.661 83.8366V77.1366C188.661 76.5843 189.109 76.1366 189.661 76.1366H196.361C196.913 76.1366 197.361 76.5843 197.361 77.1366V83.8366C197.361 84.3889 196.913 84.8366 196.361 84.8366H189.661C189.109 84.8366 188.661 84.3889 188.661 83.8366ZM195.36 78.1375H190.66V82.8375H195.36V78.1375ZM170.521 88.1647V94.8647C170.521 95.417 170.968 95.8647 171.521 95.8647H178.221C178.773 95.8647 179.221 95.417 179.221 94.8647V88.1647C179.221 87.6124 178.773 87.1647 178.221 87.1647H171.521C170.968 87.1647 170.521 87.6124 170.521 88.1647ZM172.52 89.1654H177.22V93.8654H172.52V89.1654ZM156.88 80.0289V86.7289C156.88 87.2812 157.328 87.7289 157.88 87.7289H164.58C165.133 87.7289 165.58 87.2812 165.58 86.7289V80.0289C165.58 79.4766 165.133 79.0289 164.58 79.0289H157.88C157.328 79.0289 156.88 79.4766 156.88 80.0289ZM158.879 81.0293H163.58V85.7293H158.879V81.0293Z" fill="#527FFF"/>
<path fill-rule="evenodd" clip-rule="evenodd" d="M60 25C60 14.5087 68.5087 6 79 6C89.4913 6 98 14.5087 98 25C98 35.4913 89.4913 44 79 44C68.5087 44 60 35.4913 60 25ZM96 25C96 15.6133 88.3867 8 79 8C69.6133 8 62 15.6133 62 25C62 34.3867 69.6133 42 79 42C88.3867 42 96 34.3867 96 25ZM163.5 11C154.389 11 147 18.3891 147 27.5C147 36.6109 154.389 44 163.5 44C172.611 44 180 36.6109 180 27.5C180 18.3891 172.611 11 163.5 11ZM163.5 13C171.506 13 178 19.4937 178 27.5C178 35.5063 171.506 42 163.5 42C155.494 42 149 35.5063 149 27.5C149 19.4937 155.494 13 163.5 13ZM152.5 105C143.388 105 136 112.388 136 121.5C136 130.612 143.388 138 152.5 138C161.612 138 169 130.612 169 121.5C169 112.388 161.612 105 152.5 105ZM152.5 107C160.508 107 167 113.492 167 121.5C167 129.508 160.508 136 152.5 136C144.492 136 138 129.508 138 121.5C138 113.492 144.492 107 152.5 107ZM59 84C45.7479 84 35 94.7479 35 108C35 121.252 45.7479 132 59 132C72.2521 132 83 121.252 83 108C83 94.7479 72.2521 84 59 84ZM59 86C71.1475 86 81 95.8524 81 108C81 120.148 71.1475 130 59 130C46.8525 130 37 120.148 37 108C37 95.8524 46.8525 86 59 86ZM112.139 76.966C112.139 67.5913 119.885 60 129.431 60C138.976 60 146.722 67.5913 146.722 76.966C146.722 86.3406 138.976 93.9319 129.431 93.9319C119.885 93.9319 112.139 86.3406 112.139 76.966ZM144.722 76.966C144.722 68.7051 137.88 62 129.431 62C120.981 62 114.139 68.7051 114.139 76.966C114.139 85.2269 120.981 91.9319 129.431 91.9319C137.88 91.9319 144.722 85.2269 144.722 76.966ZM110.72 48.0769C110.967 48.072 111.215 48.0695 111.465 48.0695C111.968 48.0695 112.465 48.0794 112.955 48.0987L113.684 48.1348L114.402 48.1848C115.113 48.2417 115.806 48.319 116.476 48.4153L117.137 48.518C122.146 49.3529 125.688 51.2812 125.688 53.6895V58.3863H123.688V56.5086C122.929 56.9688 121.974 57.367 120.858 57.6971L120.318 57.8482L119.755 57.989C119.181 58.1246 118.573 58.2445 117.936 58.3482L117.288 58.4463C117.07 58.4772 116.847 58.5063 116.622 58.5335L115.938 58.6095C115.476 58.6564 115.003 58.6958 114.519 58.7274L113.786 58.7691L113.037 58.799L112.275 58.8171L111.5 58.8232L110.728 58.817C110.6 58.815 110.473 58.8124 110.346 58.8094L109.593 58.7851C109.468 58.78 109.344 58.7745 109.221 58.7685L108.489 58.7263L107.772 58.6725C107.299 58.6328 106.836 58.5854 106.386 58.5305L105.719 58.4426C105.61 58.427 105.501 58.411 105.393 58.3945L104.755 58.2901C104.44 58.2351 104.133 58.1762 103.834 58.1132L103.247 57.982C101.637 57.6007 100.285 57.0973 99.2769 56.4872V61.8874C99.2769 62.5151 100.24 63.1803 101.887 63.7356L102.312 63.8721C102.386 63.8944 102.46 63.9165 102.536 63.9384L103.003 64.0671C103.083 64.088 103.164 64.1087 103.246 64.1292L103.751 64.2489C103.838 64.2683 103.925 64.2874 104.014 64.3062L104.556 64.4157C104.648 64.4334 104.741 64.4507 104.836 64.4677L105.412 64.566C105.608 64.5974 105.808 64.6274 106.011 64.656L106.63 64.7374L107.269 64.8096C107.485 64.832 107.705 64.8529 107.927 64.8721L108.603 64.9243C108.717 64.9322 108.832 64.9395 108.947 64.9465L109.648 64.9825C109.766 64.9875 109.885 64.9921 110.004 64.9962L110.728 65.0148C110.85 65.0168 110.972 65.0184 111.095 65.0195L111.465 65.0211H113.139V67.0211H111.465L111.076 67.0195L110.307 67.0075L109.552 66.9834L108.811 66.9476C108.2 66.9129 107.605 66.866 107.027 66.8074L106.343 66.7314C106.118 66.7042 105.896 66.6751 105.677 66.6442L105.03 66.5461L104.402 66.437C102.275 66.0426 100.516 65.457 99.2769 64.7065V70.0158C99.2769 70.6786 99.9177 71.3329 101.107 71.8813L101.461 72.0351C102.015 72.2611 102.668 72.466 103.413 72.6421L103.923 72.7551C104.534 72.8818 105.199 72.9901 105.915 73.0763L106.542 73.1447C106.755 73.1657 106.972 73.1847 107.193 73.2018L107.868 73.2471C108.097 73.2602 108.33 73.2712 108.567 73.2801L109.288 73.3002C109.411 73.3025 109.534 73.3042 109.658 73.3053L110.033 73.3071V75.3071C108.599 75.3071 107.256 75.2372 106.021 75.1024L105.357 75.0224C102.756 74.678 100.675 74.0301 99.2769 73.1274V77.5884C99.2769 78.1685 99.932 78.7778 101.091 79.3184L101.454 79.4784C101.769 79.6098 102.114 79.7364 102.488 79.8565L102.95 79.9975C103.029 80.0204 103.109 80.0431 103.19 80.0655L103.691 80.196C103.776 80.2172 103.863 80.238 103.951 80.2585L104.488 80.3774C104.763 80.4348 105.046 80.4889 105.338 80.5396L105.933 80.636L106.549 80.7225L107.185 80.7983C107.4 80.8218 107.619 80.8434 107.84 80.863L108.514 80.9159C108.742 80.9315 108.973 80.9451 109.206 80.9565L109.915 80.9841L110.639 80.9982L111.007 81V83C110.494 83 109.989 82.9907 109.493 82.9724L108.757 82.9382C108.693 82.9346 108.63 82.9309 108.566 82.927C108.509 82.9235 108.452 82.9199 108.395 82.9161L107.681 82.8621C107.446 82.8419 107.214 82.8196 106.984 82.7951L106.304 82.7155L105.642 82.6234C105.533 82.607 105.425 82.5901 105.317 82.5727L104.684 82.4623C100.315 81.6475 97.4142 79.9579 97.2817 77.7472L97.28 77.6926H97.2769V77.5884V70.0158V61.8874V53.6895V53.4463H97.2892C97.5204 51.1668 100.992 49.3327 105.816 48.5213L106.475 48.418L107.15 48.3274C107.378 48.2994 107.607 48.2735 107.839 48.2499L108.542 48.1858C109.015 48.1476 109.496 48.1185 109.983 48.099L110.72 48.0769ZM123.688 53.6895C123.688 53.0903 122.918 52.4314 121.599 51.8419L121.207 51.6755C120.666 51.4564 120.048 51.2491 119.365 51.0609L118.842 50.9233C118.128 50.745 117.354 50.5874 116.531 50.4577L115.904 50.3658C115.798 50.3514 115.692 50.3374 115.584 50.324L114.932 50.249L114.265 50.1861C113.366 50.1107 112.429 50.0695 111.465 50.0695C107.955 50.0695 104.732 50.5888 102.364 51.47C100.357 52.2168 99.2769 53.1245 99.2769 53.6895C99.2769 54.2101 100.316 55.0056 102.337 55.6504C104.669 56.3947 107.909 56.8232 111.5 56.8232C111.624 56.8232 111.748 56.8226 111.871 56.8216L112.601 56.8091C112.843 56.8029 113.081 56.7947 113.318 56.7846L114.018 56.7486C114.134 56.7417 114.249 56.7343 114.363 56.7264L115.038 56.6742C115.261 56.655 115.48 56.6341 115.696 56.6117L116.335 56.5395L116.955 56.4581L117.553 56.3681L118.13 56.2698C118.224 56.2528 118.317 56.2355 118.41 56.2178L118.952 56.1083C118.997 56.0987 119.042 56.0889 119.087 56.0791C119.13 56.0698 119.172 56.0604 119.214 56.051L119.72 55.9313C119.802 55.9109 119.883 55.8901 119.963 55.8692L120.43 55.7405C122.47 55.1493 123.688 54.3956 123.688 53.6895Z" fill="#232F3E"/>
</svg>
