<svg width="32" height="32" viewBox="0 0 32 32" fill="none" xmlns="http://www.w3.org/2000/svg">
<path fill-rule="evenodd" clip-rule="evenodd" d="M8.10443 5.54613V5.54371H8.10442C8.10442 5.54371 8.10442 5.5437 8.10442 5.5437C8.10442 4.38187 11.3886 2.77142 16.7319 2.77142C22.0751 2.77142 25.3593 4.38763 25.3593 5.5437C25.3593 6.69978 22.0751 8.31024 16.7319 8.31024C11.3923 8.31024 8.10899 6.70777 8.10443 5.54613ZM8.10443 7.46274V26.4566C8.10443 27.607 11.3886 29.2289 16.7319 29.2289C22.0751 29.2289 25.3593 27.6185 25.3593 26.4566V7.46527C23.6001 8.77295 20.0909 9.46057 16.7319 9.46057C13.3729 9.46057 9.86364 8.77006 8.10443 7.46274ZM26.5097 5.54371C26.5097 2.99573 21.4712 1.62109 16.7319 1.62109C11.9925 1.62109 6.9541 3.00149 6.9541 5.54371V26.4566C6.9541 29.0046 11.9925 30.3793 16.7319 30.3793C21.4712 30.3793 26.5097 29.0046 26.5097 26.4566V5.54371Z" fill="#232F3E"/>
<path fill-rule="evenodd" clip-rule="evenodd" d="M21.0783 14.2237C20.5385 13.8626 20.183 13.2474 20.183 12.5492C20.183 11.4374 21.0843 10.5361 22.1961 10.5361C23.3078 10.5361 24.2091 11.4374 24.2091 12.5492V12.578C24.1903 13.6772 23.2954 14.5593 22.1961 14.5623C22.1912 14.5623 22.1863 14.5623 22.1814 14.5622L21.198 17.0535C21.6327 17.4228 21.9085 17.9734 21.9085 18.5884C21.9085 19.7002 21.0072 20.6015 19.8954 20.6015C18.9054 20.6015 18.0822 19.8868 17.9138 18.9452L15.3263 18.3568C14.9819 18.972 14.3238 19.3879 13.5686 19.3879C13.4937 19.3879 13.4197 19.3838 13.3469 19.3758L12.558 21.2244C12.9999 21.5937 13.281 22.1489 13.281 22.7699C13.281 23.3038 13.0689 23.8158 12.6914 24.1933C12.3139 24.5708 11.8019 24.7829 11.268 24.7829C10.1562 24.7829 9.25488 23.8816 9.25488 22.7699C9.25488 21.6581 10.1562 20.7568 11.268 20.7568C11.3468 20.7568 11.4247 20.7613 11.5012 20.7701L12.2875 18.9277C11.8404 18.5584 11.5555 17.9999 11.5555 17.3748C11.5555 16.263 12.4568 15.3617 13.5686 15.3617C14.6331 15.3617 15.5046 16.188 15.5768 17.2341L18.0446 17.7952C18.3525 17.0778 19.0653 16.5754 19.8954 16.5754C19.9796 16.5754 20.0626 16.5805 20.1441 16.5906L21.0783 14.2237ZM22.1961 11.6865C21.7234 11.6867 21.3389 12.0673 21.3338 12.5399C21.3288 13.0126 21.705 13.4013 22.1775 13.4117C22.6501 13.4222 23.043 13.0504 23.0588 12.578C23.0666 12.3442 22.9792 12.1173 22.8165 11.9492C22.6539 11.7812 22.4299 11.6863 22.1961 11.6865ZM10.4052 22.7698C10.4052 22.2934 10.7915 21.9071 11.268 21.9071C11.7444 21.9071 12.1307 22.2934 12.1307 22.7698C12.1307 23.2463 11.7444 23.6326 11.268 23.6326C10.7915 23.6326 10.4052 23.2463 10.4052 22.7698ZM13.5686 16.5121C13.0921 16.5121 12.7059 16.8983 12.7059 17.3748C12.7059 17.8513 13.0921 18.2376 13.5686 18.2376C14.0451 18.2376 14.4314 17.8513 14.4314 17.3748C14.4314 16.8983 14.0451 16.5121 13.5686 16.5121ZM19.0327 18.5884C19.0327 18.1119 19.4189 17.7257 19.8954 17.7257C20.3719 17.7257 20.7581 18.1119 20.7581 18.5884C20.7581 19.0649 20.3719 19.4512 19.8954 19.4512C19.4189 19.4512 19.0327 19.0649 19.0327 18.5884Z" fill="#527FFF"/>
<mask id="mask0_14036_28707" style="mask-type:luminance" maskUnits="userSpaceOnUse" x="9" y="10" width="16" height="15">
<path fill-rule="evenodd" clip-rule="evenodd" d="M21.0783 14.2237C20.5385 13.8626 20.183 13.2474 20.183 12.5492C20.183 11.4374 21.0843 10.5361 22.1961 10.5361C23.3078 10.5361 24.2091 11.4374 24.2091 12.5492V12.578C24.1903 13.6772 23.2954 14.5593 22.1961 14.5623C22.1912 14.5623 22.1863 14.5623 22.1814 14.5622L21.198 17.0535C21.6327 17.4228 21.9085 17.9734 21.9085 18.5884C21.9085 19.7002 21.0072 20.6015 19.8954 20.6015C18.9054 20.6015 18.0822 19.8868 17.9138 18.9452L15.3263 18.3568C14.9819 18.972 14.3238 19.3879 13.5686 19.3879C13.4937 19.3879 13.4197 19.3838 13.3469 19.3758L12.558 21.2244C12.9999 21.5937 13.281 22.1489 13.281 22.7699C13.281 23.3038 13.0689 23.8158 12.6914 24.1933C12.3139 24.5708 11.8019 24.7829 11.268 24.7829C10.1562 24.7829 9.25488 23.8816 9.25488 22.7699C9.25488 21.6581 10.1562 20.7568 11.268 20.7568C11.3468 20.7568 11.4247 20.7613 11.5012 20.7701L12.2875 18.9277C11.8404 18.5584 11.5555 17.9999 11.5555 17.3748C11.5555 16.263 12.4568 15.3617 13.5686 15.3617C14.6331 15.3617 15.5046 16.188 15.5768 17.2341L18.0446 17.7952C18.3525 17.0778 19.0653 16.5754 19.8954 16.5754C19.9796 16.5754 20.0626 16.5805 20.1441 16.5906L21.0783 14.2237ZM22.1961 11.6865C21.7234 11.6867 21.3389 12.0673 21.3338 12.5399C21.3288 13.0126 21.705 13.4013 22.1775 13.4117C22.6501 13.4222 23.043 13.0504 23.0588 12.578C23.0666 12.3442 22.9792 12.1173 22.8165 11.9492C22.6539 11.7812 22.4299 11.6863 22.1961 11.6865ZM10.4052 22.7698C10.4052 22.2934 10.7915 21.9071 11.268 21.9071C11.7444 21.9071 12.1307 22.2934 12.1307 22.7698C12.1307 23.2463 11.7444 23.6326 11.268 23.6326C10.7915 23.6326 10.4052 23.2463 10.4052 22.7698ZM13.5686 16.5121C13.0921 16.5121 12.7059 16.8983 12.7059 17.3748C12.7059 17.8513 13.0921 18.2376 13.5686 18.2376C14.0451 18.2376 14.4314 17.8513 14.4314 17.3748C14.4314 16.8983 14.0451 16.5121 13.5686 16.5121ZM19.0327 18.5884C19.0327 18.1119 19.4189 17.7257 19.8954 17.7257C20.3719 17.7257 20.7581 18.1119 20.7581 18.5884C20.7581 19.0649 20.3719 19.4512 19.8954 19.4512C19.4189 19.4512 19.0327 19.0649 19.0327 18.5884Z" fill="white"/>
</mask>
<g mask="url(#mask0_14036_28707)">
</g>
</svg>
