<svg width="32" height="32" viewBox="0 0 32 32" fill="none" xmlns="http://www.w3.org/2000/svg">
<path fill-rule="evenodd" clip-rule="evenodd" d="M25.5 6V4.5H17.5H16H8.5V6H16V15H8.5V16.5H16V25.5H8.75V27H25.25V25.5H17.5V16.5H25.5V15H17.5V6H25.5Z" fill="#527FFF"/>
<path fill-rule="evenodd" clip-rule="evenodd" d="M28 2.25C26.4812 2.25 25.25 3.48122 25.25 5C25.25 6.51878 26.4812 7.75 28 7.75C29.5188 7.75 30.75 6.51878 30.75 5C30.75 3.48122 29.5188 2.25 28 2.25ZM28 3.75C28.6903 3.75 29.25 4.30964 29.25 5C29.25 5.69036 28.6903 6.25 28 6.25C27.3096 6.25 26.75 5.69036 26.75 5C26.75 4.30964 27.3096 3.75 28 3.75ZM3.99999 13.25C2.48121 13.25 1.24999 14.4812 1.24999 16C1.24999 17.5188 2.48121 18.75 3.99999 18.75C5.51877 18.75 6.74999 17.5188 6.74999 16C6.74999 14.4812 5.51877 13.25 3.99999 13.25ZM3.99999 14.75C4.69035 14.75 5.24999 15.3096 5.24999 16C5.24999 16.6904 4.69035 17.25 3.99999 17.25C3.30964 17.25 2.74999 16.6904 2.74999 16C2.74999 15.3096 3.30964 14.75 3.99999 14.75ZM1.99999 2.25H5.99999C6.41421 2.25 6.74999 2.58579 6.74999 3V7C6.74999 7.41421 6.41421 7.75 5.99999 7.75H1.99999C1.58578 7.75 1.24999 7.41421 1.24999 7V3C1.24999 2.58579 1.58578 2.25 1.99999 2.25ZM5.24999 6.2495V3.7495H2.74999V6.2495H5.24999ZM30.75 24C30.75 23.5858 30.4142 23.25 30 23.25H26C25.5858 23.25 25.25 23.5858 25.25 24V28C25.25 28.4142 25.5858 28.75 26 28.75H30C30.4142 28.75 30.75 28.4142 30.75 28V24ZM29.25 24.7495V27.2495H26.75V24.7495H29.25ZM0.96967 25.7981L3.7981 22.9697C4.09099 22.6768 4.56586 22.6768 4.85876 22.9697L7.68718 25.7981C7.98008 26.091 7.98008 26.5659 7.68718 26.8588L4.85876 29.6872C4.56586 29.9801 4.09099 29.9801 3.7981 29.6872L0.96967 26.8588C0.676777 26.5659 0.676777 26.091 0.96967 25.7981ZM6.09558 26.3284L4.32781 24.5607L2.56004 26.3284L4.32781 28.0962L6.09558 26.3284ZM27.2981 12.4697L24.4697 15.2981C24.1768 15.591 24.1768 16.0659 24.4697 16.3588L27.2981 19.1872C27.591 19.4801 28.0659 19.4801 28.3588 19.1872L31.1872 16.3588C31.4801 16.0659 31.4801 15.591 31.1872 15.2981L28.3588 12.4697C28.0659 12.1768 27.591 12.1768 27.2981 12.4697ZM27.8278 14.0607L29.5956 15.8284L27.8278 17.5962L26.06 15.8284L27.8278 14.0607Z" fill="#232F3E"/>
</svg>
