<svg width="249" height="144" viewBox="0 0 249 144" fill="none" xmlns="http://www.w3.org/2000/svg">
<path fill-rule="evenodd" clip-rule="evenodd" d="M33.1938 10.4189C32.5148 10.4189 31.9644 9.87222 31.9644 9.19824L31.9644 1.80859C31.9644 1.13462 32.5148 0.587891 33.1938 0.587891L40.6392 0.587891C41.3182 0.587899 41.8687 1.13462 41.8687 1.80859V9.19824C41.8687 9.87221 41.3182 10.4189 40.6392 10.4189H33.1938ZM39.4106 7.97852V3.0293H34.4233V7.97852H39.4106ZM72.9213 15.3972C72.9213 16.0712 73.4717 16.6179 74.1508 16.6179H81.5961C82.2751 16.6179 82.8256 16.0712 82.8256 15.3972V8.00753C82.8256 7.33356 82.2751 6.78684 81.5961 6.78683H74.1508C73.4717 6.78683 72.9213 7.33356 72.9213 8.00753V15.3972ZM80.3676 9.22824V14.1775H75.3812V9.22824H80.3676ZM58.4629 28.8424C57.7838 28.8424 57.2334 28.2956 57.2334 27.6217V20.232C57.2334 19.558 57.7838 19.0113 58.4629 19.0113H65.9082C66.5872 19.0113 67.1377 19.558 67.1377 20.232V27.6217C67.1377 28.2956 66.5872 28.8424 65.9082 28.8424H58.4629ZM64.6797 26.4029V21.4527H59.6924V26.4029H64.6797ZM82.8885 34.951C82.8885 35.6249 83.4391 36.1716 84.118 36.1717H91.5643C92.2432 36.1715 92.7938 35.6249 92.7938 34.951V27.5614C92.7938 26.8875 92.2432 26.3409 91.5643 26.3407H84.118C83.4391 26.3408 82.8885 26.8875 82.8885 27.5614V34.951ZM90.3348 28.7821V33.7313H85.3485V28.7821H90.3348ZM126.636 69.0002C128.485 69.0002 129.999 70.5386 129.999 72.4172V78.5832C129.999 80.1813 128.903 81.5315 127.438 81.8997L137.705 93.0002H144.795C145.46 93.0002 145.999 93.5469 145.999 94.2209V104.78C145.999 105.454 145.46 106 144.795 106H127.204C126.539 106 125.999 105.454 125.999 104.78V94.2209C125.999 93.5469 126.539 93.0002 127.204 93.0002H134.394L124.22 82.0002H116.825L107.606 93.0002H109.636C111.485 93.0002 112.999 94.5386 112.999 96.4172V102.583C112.999 104.462 111.485 106 109.636 106H96.3627C94.514 106 92.9997 104.462 92.9995 102.583V96.4172C92.9997 94.5386 94.514 93.0002 96.3627 93.0002H104.335L113.555 82.0002H113.363C111.514 82.0002 110 80.4619 109.999 78.5832V72.4172C110 70.5386 111.514 69.0002 113.363 69.0002H126.636ZM96.3627 95.4416C95.8407 95.4416 95.402 95.8867 95.4018 96.4172V102.583C95.402 103.114 95.8407 103.559 96.3627 103.559H109.636C110.158 103.559 110.597 103.114 110.597 102.583V96.4172C110.597 95.8867 110.158 95.4416 109.636 95.4416H96.3627ZM128.407 103.559H143.59V95.4407H128.407V103.559ZM113.363 71.4416C112.841 71.4416 112.402 71.8867 112.402 72.4172V78.5832C112.402 79.1137 112.841 79.5588 113.363 79.5588H126.636C127.158 79.5588 127.597 79.1137 127.597 78.5832V72.4172C127.597 71.8867 127.158 71.4416 126.636 71.4416H113.363ZM183.864 139.386L183.822 139.243L175.032 101.481C174.807 100.518 175.795 99.7117 176.725 100.1L213.247 115.35C214.351 115.81 214.206 117.382 213.036 117.643L200.883 120.351L212.105 133.603C212.506 134.076 212.477 134.758 212.061 135.197L211.949 135.301L204.149 141.716C203.625 142.147 202.842 142.08 202.402 141.566L191.064 128.31L186.166 139.452C185.714 140.482 184.225 140.396 183.864 139.386ZM208.769 116.112L177.985 103.257L185.393 135.082L189.587 125.546C189.93 124.766 190.951 124.577 191.564 125.135L191.674 125.248L203.506 139.081L209.414 134.222L197.694 120.381C197.138 119.725 197.435 118.746 198.227 118.471L198.372 118.43L208.769 116.112ZM98.6039 33.4167C98.6039 34.0907 99.1543 34.6374 99.8334 34.6374H107.279C107.958 34.6374 108.508 34.0907 108.508 33.4167V26.027C108.508 25.3531 107.958 24.8063 107.279 24.8063H99.8334C99.1543 24.8063 98.6039 25.3531 98.6039 26.027V33.4167ZM106.049 27.2487V32.197H101.064V27.2487H106.049ZM71.2301 49.3152H63.7844C63.1054 49.3152 62.5549 48.7688 62.5549 48.0948V40.7047C62.5549 40.0307 63.1054 39.4843 63.7844 39.4843H71.2301C71.9091 39.4843 72.4596 40.0307 72.4596 40.7047V48.0948C72.4596 48.7688 71.9091 49.3152 71.2301 49.3152ZM65.0143 41.9255V46.8752H70.0012V41.9255H65.0143ZM60.1874 72.1026C60.1874 72.7764 60.738 73.3231 61.4169 73.3233H68.8632C69.5421 73.3231 70.0927 72.7765 70.0927 72.1026V64.7129C70.0927 64.039 69.5421 63.4924 68.8632 63.4922H61.4169C60.738 63.4924 60.1874 64.0391 60.1874 64.7129V72.1026ZM67.6337 65.9336V70.8838H62.6483V65.9336H67.6337ZM45.4369 58.9255C44.758 58.9254 44.2074 58.3787 44.2074 57.7048V50.3152C44.2074 49.6413 44.758 49.0946 45.4369 49.0945H52.8832C53.5621 49.0946 54.1127 49.6413 54.1127 50.3152V57.7048C54.1127 58.3787 53.5621 58.9253 52.8832 58.9255H45.4369ZM51.6547 56.4861V51.5359H46.6674V56.4861H51.6547ZM39.9322 30.9412H47.3779C48.0569 30.9412 48.6074 30.3948 48.6074 29.7208V22.3307C48.6074 21.6567 48.0569 21.1103 47.3779 21.1103H39.9322C39.2531 21.1103 38.7027 21.6567 38.7027 22.3307V29.7208C38.7027 30.3948 39.2531 30.9412 39.9322 30.9412ZM41.1619 28.5012V23.5515H46.1488V28.5012H41.1619Z" fill="#527FFF"/>
<path fill-rule="evenodd" clip-rule="evenodd" d="M191.968 44C194.121 44.0001 195.875 45.6314 195.993 47.7979L196 48.0322V96.9609H193.562V48.0322C193.561 47.1705 192.951 46.5238 192.134 46.4463L191.968 46.4385H80.0322C79.1705 46.4386 78.5237 47.0489 78.4463 47.8662L78.4385 48.0322V127.968C78.4385 128.83 79.0489 129.476 79.8662 129.554L80.0322 129.562H168.408V132H80.0322C79.6624 132 79.3048 131.95 78.9648 131.859V132.463H66.4434V137.708L66.5791 137.88C67.1804 138.601 68.0348 139.177 69.0967 139.615L69.4209 139.742C70.3476 140.087 71.3552 140.312 72.3652 140.438L72.792 140.484L73.1572 140.515L73.4561 140.531L73.6797 140.537H170V143H73.6797L73.3848 142.994L73.0127 142.974L72.5713 142.938L72.0674 142.882C70.8831 142.735 69.6965 142.47 68.5752 142.053C66.6849 141.35 65.1667 140.283 64.1953 138.766C64.0935 138.606 64.0292 138.426 64.0078 138.239L64 138.099V131.231C64.0001 130.6 64.4716 130.079 65.0791 130.008L65.2217 130H76.5342C76.2302 129.471 76.0429 128.861 76.0068 128.202L76 127.968V48.0322C76 45.8786 77.6314 44.1254 79.7979 44.0068L80.0322 44H191.968ZM185.952 51C188.114 51.0002 189.874 52.6315 189.993 54.7979L190 55.0322V93.1055H187.552V61H157V121.562H165.947V124H88.0479C85.8859 124 84.1259 122.368 84.0068 120.202L84 119.968V55.0322C84.0001 52.8785 85.6383 51.1252 87.8135 51.0068L88.0479 51H185.952ZM86.4482 119.968C86.4483 120.829 87.0613 121.476 87.8818 121.554L88.0479 121.562H155V61H86.4482V119.968ZM88.0479 53.4385C87.1829 53.4387 86.5338 54.049 86.4561 54.8662L86.4482 55.0322V59H187.552V55.0322C187.552 54.1705 186.939 53.5237 186.118 53.4463L185.952 53.4385H88.0479Z" fill="#232F3E"/>
</svg>
