<svg width="32" height="32" viewBox="0 0 32 32" fill="none" xmlns="http://www.w3.org/2000/svg">
<path fill-rule="evenodd" clip-rule="evenodd" d="M29.0737 15.4166L25.9454 18.5592L27.0084 19.6175L31.913 14.6909L26.9136 9.66905L25.8506 10.7273L29.0251 13.9166H22.6088C22.4218 13.9166 22.2426 13.9864 22.1054 14.1107L22.0493 14.1672L17.4762 19.2905L12.9031 14.1672L12.847 14.1107C12.7098 13.9864 12.5306 13.9166 12.3436 13.9166H8.5V15.4166H12.008L16.471 20.4166L12.008 25.4166H8.5V26.9166H12.3436C12.5306 26.9166 12.7098 26.8469 12.847 26.7226L12.9031 26.6661L17.4762 21.5428L22.0493 26.6661L22.1054 26.7226C22.2426 26.8469 22.4218 26.9166 22.6088 26.9166H29.0737L25.9454 30.0592L27.0084 31.1175L31.913 26.1909L26.9136 21.1691L25.8506 22.2273L29.0251 25.4166H22.9445L18.4814 20.4166L22.9445 15.4166H29.0737Z" fill="#527FFF"/>
<path fill-rule="evenodd" clip-rule="evenodd" d="M0.576923 4.16667H0.923077C1.21154 4.16667 1.5 3.9359 1.5 3.58975V3.24359C1.5 2.89744 1.26923 2.66667 0.923077 2.66667H0.576923C0.230769 2.66667 0 2.89744 0 3.24359V3.58975C0 3.9359 0.230769 4.16667 0.576923 4.16667ZM15.85 2.66667H4V4.16667H15.85V2.66667ZM22.9 6.16667H7V7.66667H22.9V6.16667ZM4 10.1667H17.95V11.6667H4V10.1667ZM6.5 13.9167H4V15.4167H6.5V13.9167ZM4 17.6667H11V19.1667H4V17.6667ZM10.5 21.6667H6.5V23.1667H10.5V21.6667ZM4 25.4167H7V26.9167H4V25.4167ZM0.923077 7.66667H0.576923C0.230769 7.66667 0 7.4359 0 7.08975V6.74359C0 6.39744 0.230769 6.16667 0.576923 6.16667H0.923077C1.26923 6.16667 1.5 6.39744 1.5 6.74359V7.08975C1.5 7.4359 1.21154 7.66667 0.923077 7.66667ZM0.576923 11.6667H0.923077C1.21154 11.6667 1.5 11.3782 1.5 11.0897V10.7436C1.5 10.3974 1.26923 10.1667 0.923077 10.1667H0.576923C0.230769 10.1667 0 10.3974 0 10.7436V11.0897C0 11.4359 0.230769 11.6667 0.576923 11.6667ZM0.923077 15.4167H0.576923C0.230769 15.4167 0 15.1859 0 14.8397V14.4936C0 14.1474 0.230769 13.9167 0.576923 13.9167H0.923077C1.26923 13.9167 1.5 14.1474 1.5 14.4936V14.8397C1.5 15.1282 1.21154 15.4167 0.923077 15.4167ZM0.576923 19.1667H0.923077C1.21154 19.1667 1.5 18.9359 1.5 18.5897V18.2436C1.5 17.8974 1.26923 17.6667 0.923077 17.6667H0.576923C0.230769 17.6667 0 17.8974 0 18.2436V18.5897C0 18.9359 0.230769 19.1667 0.576923 19.1667ZM0.923077 23.1667H0.576923C0.230769 23.1667 0 22.9359 0 22.5897V22.2436C0 21.8974 0.230769 21.6667 0.576923 21.6667H0.923077C1.26923 21.6667 1.5 21.8974 1.5 22.2436V22.5897C1.5 22.9359 1.21154 23.1667 0.923077 23.1667ZM0.576923 26.9167H0.923077C1.21154 26.9167 1.5 26.6859 1.5 26.3397V25.9936C1.5 25.6474 1.26923 25.4167 0.923077 25.4167H0.576923C0.230769 25.4167 0 25.6474 0 25.9936V26.3397C0 26.6859 0.230769 26.9167 0.576923 26.9167Z" fill="#232F3E"/>
<mask id="mask0_230_3495" style="mask-type:luminance" maskUnits="userSpaceOnUse" x="0" y="2" width="23" height="25">
<path fill-rule="evenodd" clip-rule="evenodd" d="M0.576923 4.16667H0.923077C1.21154 4.16667 1.5 3.9359 1.5 3.58975V3.24359C1.5 2.89744 1.26923 2.66667 0.923077 2.66667H0.576923C0.230769 2.66667 0 2.89744 0 3.24359V3.58975C0 3.9359 0.230769 4.16667 0.576923 4.16667ZM15.85 2.66667H4V4.16667H15.85V2.66667ZM22.9 6.16667H7V7.66667H22.9V6.16667ZM4 10.1667H17.95V11.6667H4V10.1667ZM6.5 13.9167H4V15.4167H6.5V13.9167ZM4 17.6667H11V19.1667H4V17.6667ZM10.5 21.6667H6.5V23.1667H10.5V21.6667ZM4 25.4167H7V26.9167H4V25.4167ZM0.923077 7.66667H0.576923C0.230769 7.66667 0 7.4359 0 7.08975V6.74359C0 6.39744 0.230769 6.16667 0.576923 6.16667H0.923077C1.26923 6.16667 1.5 6.39744 1.5 6.74359V7.08975C1.5 7.4359 1.21154 7.66667 0.923077 7.66667ZM0.576923 11.6667H0.923077C1.21154 11.6667 1.5 11.3782 1.5 11.0897V10.7436C1.5 10.3974 1.26923 10.1667 0.923077 10.1667H0.576923C0.230769 10.1667 0 10.3974 0 10.7436V11.0897C0 11.4359 0.230769 11.6667 0.576923 11.6667ZM0.923077 15.4167H0.576923C0.230769 15.4167 0 15.1859 0 14.8397V14.4936C0 14.1474 0.230769 13.9167 0.576923 13.9167H0.923077C1.26923 13.9167 1.5 14.1474 1.5 14.4936V14.8397C1.5 15.1282 1.21154 15.4167 0.923077 15.4167ZM0.576923 19.1667H0.923077C1.21154 19.1667 1.5 18.9359 1.5 18.5897V18.2436C1.5 17.8974 1.26923 17.6667 0.923077 17.6667H0.576923C0.230769 17.6667 0 17.8974 0 18.2436V18.5897C0 18.9359 0.230769 19.1667 0.576923 19.1667ZM0.923077 23.1667H0.576923C0.230769 23.1667 0 22.9359 0 22.5897V22.2436C0 21.8974 0.230769 21.6667 0.576923 21.6667H0.923077C1.26923 21.6667 1.5 21.8974 1.5 22.2436V22.5897C1.5 22.9359 1.21154 23.1667 0.923077 23.1667ZM0.576923 26.9167H0.923077C1.21154 26.9167 1.5 26.6859 1.5 26.3397V25.9936C1.5 25.6474 1.26923 25.4167 0.923077 25.4167H0.576923C0.230769 25.4167 0 25.6474 0 25.9936V26.3397C0 26.6859 0.230769 26.9167 0.576923 26.9167Z" fill="white"/>
</mask>
<g mask="url(#mask0_230_3495)">
</g>
</svg>
