<svg width="32" height="32" viewBox="0 0 32 32" fill="none" xmlns="http://www.w3.org/2000/svg">
<g clip-path="url(#clip0_14036_29012)">
<path d="M17.3427 23.4187H16.5468C16.2087 23.4187 15.9346 23.1446 15.9346 22.8065V9.18402C15.9346 8.84589 16.2087 8.57178 16.5468 8.57178H23.7774C23.9511 8.57374 24.1158 8.64942 24.2305 8.77994L26.0672 10.9901L25.204 11.7799L23.508 9.79627H17.1346V22.2432H17.3427V23.4187Z" fill="#232F3E"/>
<path d="M28.5217 25.635H18.6279C18.2897 25.635 18.0156 25.3609 18.0156 25.0228V11.4003C18.0156 11.0622 18.2897 10.7881 18.6279 10.7881H26.2626C26.4181 10.7903 26.5669 10.8516 26.6789 10.9595L28.9381 13.2493C29.046 13.3613 29.1073 13.5101 29.1095 13.6656V25.0473C29.097 25.3665 28.841 25.6225 28.5217 25.635ZM19.2156 24.4901H27.934V13.9105L26.0177 11.9881H19.2156V24.4901Z" fill="#232F3E"/>
<path d="M28.5218 14.8653H25.6503C25.3122 14.8653 25.0381 14.5912 25.0381 14.253V11.3755H26.2136V13.6592H28.4973L28.5218 14.8653Z" fill="#232F3E"/>
<path d="M23.0485 22.4389H22.6628C22.3611 22.4459 22.0727 22.3152 21.8791 22.0838C21.6371 21.7247 21.5469 21.2846 21.6281 20.8593C21.5913 19.7695 20.9791 19.5919 20.9791 19.5919C20.7413 19.5017 20.584 19.2738 20.584 19.0195C20.584 18.7651 20.7413 18.5372 20.9791 18.447C21.0342 18.447 21.5913 18.2205 21.5913 17.143C21.5913 16.5001 21.8913 15.7838 22.6077 15.7593H23.0118V16.9409H22.8158C22.8065 17.0079 22.8065 17.0759 22.8158 17.143C22.8576 17.8263 22.6389 18.5002 22.2036 19.0287C22.6379 19.5553 22.8567 20.2269 22.8158 20.9083C22.8219 20.9447 22.8219 20.982 22.8158 21.0185C22.8066 21.106 22.8066 21.1942 22.8158 21.2817H23.0791L23.0485 22.4389Z" fill="#527FFF"/>
<path d="M24.6959 22.4387V21.2632H24.9224C24.9285 21.1981 24.9285 21.1325 24.9224 21.0673C24.8806 20.3839 25.0994 19.7101 25.5347 19.1816C25.1003 18.655 24.8816 17.9834 24.9224 17.302C24.9194 17.2653 24.9194 17.2285 24.9224 17.1918C24.9315 17.1063 24.9315 17.0201 24.9224 16.9347H24.6592V15.753H25.0449C25.346 15.7487 25.6333 15.8789 25.8286 16.1081C26.0693 16.4677 26.1594 16.9073 26.0796 17.3326C26.0796 18.3734 26.6918 18.5571 26.6918 18.5939C26.9547 18.6792 27.1278 18.9301 27.1143 19.2061C27.1161 19.4701 26.9361 19.7008 26.6796 19.7632C26.6306 19.7632 26.0673 19.9898 26.0673 21.0734C26.0673 21.7163 25.7673 22.4326 25.051 22.451L24.6959 22.4387Z" fill="#527FFF"/>
<path d="M12.5486 8.69399C7.65063 8.69399 2.44043 7.18787 2.44043 4.40827C2.44043 1.62868 7.64451 0.122559 12.5486 0.122559C17.4527 0.122559 22.6568 1.62868 22.6568 4.40827C22.6568 7.18787 17.4466 8.69399 12.5486 8.69399ZM12.5486 1.27358C7.28329 1.27358 3.61594 2.92052 3.61594 4.39603C3.61594 5.87154 7.28941 7.51236 12.5486 7.51236C17.8078 7.51236 21.4751 5.87154 21.4751 4.39603C21.4751 2.92052 17.8078 1.27358 12.5486 1.27358Z" fill="#232F3E"/>
<path d="M21.4756 4.396H22.6511V8.1062H21.4756V4.396Z" fill="#232F3E"/>
<path d="M12.5486 29.9021C7.65063 29.9021 2.44043 28.396 2.44043 25.6164V4.396H3.61594V25.6042C3.61594 27.0797 7.28941 28.7266 12.5486 28.7266C17.8078 28.7266 21.4751 27.0797 21.4751 25.6042H22.6568C22.6568 28.396 17.4466 29.9021 12.5486 29.9021Z" fill="#232F3E"/>
<path d="M12.5671 16.1085C6.81809 16.1085 2.4834 14.2717 2.4834 11.8228H3.66503C3.66503 13.2983 7.3385 14.9452 12.5671 14.9452C13.4489 14.9445 14.3299 14.8934 15.2058 14.7921L15.3405 15.9615C14.4197 16.0639 13.4936 16.113 12.5671 16.1085Z" fill="#232F3E"/>
<path d="M12.5671 23.3941C6.81809 23.3941 2.4834 21.5574 2.4834 19.1084H3.66503C3.66503 20.5839 7.3385 22.2309 12.5671 22.2309C13.4487 22.2312 14.3297 22.1822 15.2058 22.0839L15.3344 23.2655C14.4149 23.3578 13.4912 23.4008 12.5671 23.3941Z" fill="#232F3E"/>
</g>
<defs>
<clipPath id="clip0_14036_29012">
<rect width="27.551" height="30" fill="white" transform="translate(2)"/>
</clipPath>
</defs>
</svg>
