<svg width="32" height="32" viewBox="0 0 32 32" fill="none" xmlns="http://www.w3.org/2000/svg">
<path fill-rule="evenodd" clip-rule="evenodd" d="M3.25 16H27.25C27.6642 16 28 16.3358 28 16.75V26.25C28 26.6642 27.6642 27 27.25 27H3.25C2.83579 27 2.5 26.6642 2.5 26.25V16.75C2.5 16.3358 2.83579 16 3.25 16ZM26.5 25.5V17.5H4V25.5H26.5Z" fill="#527FFF"/>
<path fill-rule="evenodd" clip-rule="evenodd" d="M27.9966 2.67777C27.9602 2.29744 27.6398 2 27.25 2H3.25L3.17777 2.00343C2.79744 2.03978 2.5 2.36015 2.5 2.75V12.25L2.50343 12.3222C2.53978 12.7026 2.86015 13 3.25 13H19.25V11.4995H4V3.4995H26.5V4.65H28V2.75L27.9966 2.67777ZM25.8917 10.331L29.1621 7.06066L28.1014 6L24.831 9.27037L21.5607 6L20.5 7.06066L23.7704 10.331L20.5 13.6014L21.5607 14.6621L24.831 11.3917L28.1014 14.6621L29.1621 13.6014L25.8917 10.331Z" fill="#232F3E"/>
</svg>
