<svg width="32" height="32" viewBox="0 0 32 32" fill="none" xmlns="http://www.w3.org/2000/svg">
<path d="M23.6471 17.7529L19.7589 21.6352C20.4584 21.4401 21.1333 21.1657 21.7707 20.8176C22.1475 21.0513 22.4032 21.4381 22.4707 21.8764C22.4707 22.9529 20.1883 24.1234 16.8001 24.5999C15.7549 24.7413 14.7018 24.8159 13.6471 24.8235H13.0589C8.30595 24.7117 4.8236 23.2117 4.8236 21.8823C4.89105 21.444 5.14679 21.0572 5.5236 20.8235C7.37066 21.8529 10.3648 22.4646 13.6471 22.4646H13.7118L14.0412 21.2882C13.9118 21.2882 13.7824 21.2882 13.6471 21.2882C10.4118 21.2882 7.41184 20.647 5.81772 19.6352C5.18242 19.2176 4.82948 18.7646 4.8236 18.3705V15.647C6.6236 17.0234 10.2118 17.7411 13.6471 17.7411C14.1118 17.7411 14.5765 17.7411 15.0295 17.6999L15.3648 16.5234C14.7765 16.5646 14.2295 16.5823 13.6471 16.5823C8.60007 16.5823 4.8236 15.0352 4.8236 13.6411C4.89105 13.2028 5.14679 12.816 5.5236 12.5823C7.14713 13.494 9.64125 14.0646 12.4707 14.194L12.5001 13.0176C9.71772 12.8823 7.20595 12.2823 5.81772 11.394C5.18831 10.9882 4.83537 10.5293 4.8236 10.1293V7.41168C6.6236 8.78815 10.2118 9.5058 13.6471 9.5058H13.7765L14.4001 8.32933H13.6471C8.60007 8.32933 4.8236 6.78227 4.8236 5.38815C4.8236 3.99404 8.60007 2.44698 13.6471 2.44698C15.347 2.43978 17.0415 2.63728 18.6942 3.03521H21.9236C20.1589 1.95874 17.1118 1.27051 13.6471 1.27051C8.80007 1.27051 3.64713 2.7058 3.64713 5.38815V10.1234C3.68291 10.8019 4.00594 11.433 4.53537 11.8587C3.99907 12.2917 3.67538 12.9348 3.64713 13.6234V18.3293C3.67462 19.0182 3.99846 19.6616 4.53537 20.094C3.99907 20.527 3.67538 21.1701 3.64713 21.8587V26.5646C3.64367 26.6057 3.64367 26.6471 3.64713 26.6882C3.80595 29.2705 8.86478 30.6587 13.6471 30.6587C18.4295 30.6587 23.4883 29.2705 23.6471 26.6764C23.6529 26.6354 23.6529 26.5938 23.6471 26.5529V21.847C23.6243 21.1569 23.2995 20.5117 22.7589 20.0823C23.2958 19.6498 23.6196 19.0064 23.6471 18.3176V17.7529ZM22.4707 26.5764C22.4707 27.9646 18.6942 29.5176 13.6471 29.5176C8.60007 29.5176 4.8236 27.9823 4.8236 26.5764V23.8705C6.6236 25.2352 10.2118 25.9529 13.6471 25.9529C17.0824 25.9529 20.6707 25.2352 22.4707 23.8705V26.5764Z" fill="#232F3E"/>
<path d="M6.58783 10.8646C6.99393 10.8646 7.32313 10.5354 7.32313 10.1293C7.32313 9.72325 6.99393 9.39404 6.58783 9.39404C6.18174 9.39404 5.85254 9.72325 5.85254 10.1293C5.85254 10.5354 6.18174 10.8646 6.58783 10.8646Z" fill="#527FFF"/>
<path d="M6.58783 19.1C6.99393 19.1 7.32313 18.7708 7.32313 18.3647C7.32313 17.9586 6.99393 17.6294 6.58783 17.6294C6.18174 17.6294 5.85254 17.9586 5.85254 18.3647C5.85254 18.7708 6.18174 19.1 6.58783 19.1Z" fill="#527FFF"/>
<path d="M6.58783 27.3353C6.99393 27.3353 7.32313 27.0061 7.32313 26.6C7.32313 26.1939 6.99393 25.8647 6.58783 25.8647C6.18174 25.8647 5.85254 26.1939 5.85254 26.6C5.85254 27.0061 6.18174 27.3353 6.58783 27.3353Z" fill="#527FFF"/>
<path d="M15.1176 24.2236C15.014 24.2224 14.9125 24.194 14.8235 24.1411C14.5877 24.0053 14.4758 23.7256 14.5529 23.4646L17.8588 12.4587H14.5293C14.3203 12.4614 14.1255 12.3529 14.0177 12.1737C13.91 11.9945 13.9054 11.7716 14.0058 11.5882L17.5352 4.52934C17.6349 4.33152 17.8373 4.20648 18.0588 4.20581H25.7058C25.8993 4.19619 26.0851 4.28242 26.2026 4.43639C26.3201 4.59036 26.3543 4.79232 26.294 4.97639L24.7882 9.49992H28.0882C28.3231 9.50082 28.535 9.64144 28.6271 9.8576C28.7192 10.0738 28.6738 10.324 28.5117 10.494L15.5705 24.0235C15.4563 24.1535 15.2906 24.2267 15.1176 24.2236ZM15.4823 11.2823H18.647C18.8321 11.2823 19.0065 11.3694 19.1176 11.5176C19.2287 11.6657 19.2635 11.8575 19.2117 12.0352L16.3823 21.447L26.6823 10.6823H23.9411C23.7462 10.6926 23.5589 10.6056 23.441 10.4501C23.3232 10.2945 23.2901 10.0906 23.3529 9.90581L24.8588 5.38816H18.3882L15.4823 11.2823Z" fill="#527FFF"/>
</svg>
