<svg width="32" height="32" viewBox="0 0 32 32" fill="none" xmlns="http://www.w3.org/2000/svg">
<path fill-rule="evenodd" clip-rule="evenodd" d="M29 3.25H3C2.58579 3.25 2.25 3.58579 2.25 4V9.5C2.25 9.91421 2.58579 10.25 3 10.25H29C29.4142 10.25 29.75 9.91421 29.75 9.5V4C29.75 3.58579 29.4142 3.25 29 3.25ZM28.25 4.75V8.75H3.75V4.75H28.25ZM29 12.75H3C2.58579 12.75 2.25 13.0858 2.25 13.5V19C2.25 19.4142 2.58579 19.75 3 19.75H29C29.4142 19.75 29.75 19.4142 29.75 19V13.5C29.75 13.0858 29.4142 12.75 29 12.75ZM28.25 14.25V18.25H3.75V14.25H28.25ZM3 22.25H29C29.4142 22.25 29.75 22.5858 29.75 23V28.5C29.75 28.9142 29.4142 29.25 29 29.25H3C2.58579 29.25 2.25 28.9142 2.25 28.5V23C2.25 22.5858 2.58579 22.25 3 22.25ZM28.25 27.75V23.75H3.75V27.75H28.25ZM26 15.5H6V17H26V15.5Z" fill="#527FFF"/>
<path fill-rule="evenodd" clip-rule="evenodd" d="M26 6H6V7.5H26V6ZM26 25H6V26.5H26V25Z" fill="#232F3E"/>
</svg>
