<svg width="32" height="32" viewBox="0 0 32 32" fill="none" xmlns="http://www.w3.org/2000/svg">
<path fill-rule="evenodd" clip-rule="evenodd" d="M7.48683 2.2981L25.044 2.29873C26.0105 2.33853 26.5908 3.42666 26.0406 4.22129L19.304 14.2055L19.3044 19.4226C19.3044 20.0702 18.7971 20.609 18.155 20.6511L18.0741 20.6537L14.4 20.6858C13.7119 20.6858 13.1631 20.1435 13.1631 19.4547L13.163 14.1425L6.45452 4.214C5.93056 3.41737 6.46872 2.3588 7.40557 2.3006L7.48683 2.2981ZM18.0138 13.4381L24.5165 3.79799H7.98399L14.4731 13.4042C14.5757 13.5731 14.642 13.7652 14.6589 13.9653L14.6632 14.066L14.663 19.183L17.804 19.156L17.8044 14.1302C17.8044 13.9277 17.8561 13.7309 17.9584 13.5356L18.0138 13.4381Z" fill="#232F3E"/>
<path fill-rule="evenodd" clip-rule="evenodd" d="M15.5022 9.90368L12.2522 5.15651L11.0145 6.00388L14.2645 10.751L15.5022 9.90368ZM9 24.25C7.48122 24.25 6.25 25.4812 6.25 27C6.25 28.5188 7.48122 29.75 9 29.75C10.5188 29.75 11.75 28.5188 11.75 27C11.75 25.4812 10.5188 24.25 9 24.25ZM9 25.75C9.69036 25.75 10.25 26.3096 10.25 27C10.25 27.6904 9.69036 28.25 9 28.25C8.30964 28.25 7.75 27.6904 7.75 27C7.75 26.3096 8.30964 25.75 9 25.75ZM21.75 27C21.75 25.4812 22.9812 24.25 24.5 24.25C26.0188 24.25 27.25 25.4812 27.25 27C27.25 28.5188 26.0188 29.75 24.5 29.75C22.9812 29.75 21.75 28.5188 21.75 27ZM25.75 27C25.75 26.3096 25.1904 25.75 24.5 25.75C23.8096 25.75 23.25 26.3096 23.25 27C23.25 27.6904 23.8096 28.25 24.5 28.25C25.1904 28.25 25.75 27.6904 25.75 27ZM19.5 22.25H15.5C15.0858 22.25 14.75 22.5858 14.75 23V27C14.75 27.4142 15.0858 27.75 15.5 27.75H19.5C19.9142 27.75 20.25 27.4142 20.25 27V23C20.25 22.5858 19.9142 22.25 19.5 22.25ZM18.75 23.75V26.25H16.25V23.75H18.75Z" fill="#527FFF"/>
</svg>
