<svg width="32" height="32" viewBox="0 0 32 32" fill="none" xmlns="http://www.w3.org/2000/svg">
<path fill-rule="evenodd" clip-rule="evenodd" d="M27.7602 9.93906L23.1689 14.5874L24.284 15.6891L30.6374 9.25639L24.0978 2.63655L22.9926 3.72808L27.5934 8.38567H18.9117C18.7154 8.38567 18.5273 8.45862 18.3836 8.58836L18.3249 8.64739L4.79897 23.7801L0 23.78V25.3333H5.15205C5.34838 25.3333 5.53648 25.2604 5.68009 25.1306L5.73881 25.0716L19.2643 9.93944L27.7602 9.93906Z" fill="#232F3E"/>
<path fill-rule="evenodd" clip-rule="evenodd" d="M5.68009 8.20526C5.53648 8.07388 5.34838 8 5.15205 8H0V9.573L4.79897 9.57292L18.3249 24.8972L18.3836 24.957C18.5273 25.0884 18.7154 25.1623 18.9117 25.1623H27.4663L23.1281 29.5537L24.2434 30.6553L30.6777 24.1416L24.1386 17.5212L23.0195 18.6267L27.9205 23.5892L19.2643 23.5888L5.73881 8.26504L5.68009 8.20526Z" fill="#527FFF"/>
<mask id="mask0_230_3494" style="mask-type:luminance" maskUnits="userSpaceOnUse" x="0" y="8" width="31" height="23">
<path fill-rule="evenodd" clip-rule="evenodd" d="M5.68009 8.20526C5.53648 8.07388 5.34838 8 5.15205 8H0V9.573L4.79897 9.57292L18.3249 24.8972L18.3836 24.957C18.5273 25.0884 18.7154 25.1623 18.9117 25.1623H27.4663L23.1281 29.5537L24.2434 30.6553L30.6777 24.1416L24.1386 17.5212L23.0195 18.6267L27.9205 23.5892L19.2643 23.5888L5.73881 8.26504L5.68009 8.20526Z" fill="white"/>
</mask>
<g mask="url(#mask0_230_3494)">
</g>
</svg>
