<svg width="32" height="32" viewBox="0 0 32 32" fill="none" xmlns="http://www.w3.org/2000/svg">
<path fill-rule="evenodd" clip-rule="evenodd" d="M4.49739 30.6667H6.18699V29.4934H4.50913C4.13976 29.4934 3.84033 29.1939 3.84033 28.8246V3.16964C3.84351 2.80484 4.13846 2.50989 4.50326 2.50671H6.18699V1.33337H4.50913C3.49308 1.33659 2.67021 2.15946 2.66699 3.17551V28.8363C2.66699 29.8472 3.48649 30.6667 4.49739 30.6667ZM29.067 30.6667H7.94699C7.62298 30.6667 7.36032 30.404 7.36032 30.08V1.92004C7.36032 1.59603 7.62298 1.33337 7.94699 1.33337H29.067C29.391 1.33337 29.6537 1.59603 29.6537 1.92004V30.08C29.6537 30.404 29.391 30.6667 29.067 30.6667ZM8.53366 29.4934H28.4803V2.50671H8.53366V29.4934ZM18.507 23.3334C17.9678 23.3153 17.4441 23.1488 16.9934 22.8523C16.8255 22.7446 16.7239 22.559 16.7235 22.3595V20.3355L12.3243 11.6154C12.1701 11.4331 12.083 11.2257 12.083 10.9899C12.083 9.13604 17.4451 9.04804 18.5363 9.04804C19.6275 9.04804 24.9897 9.14191 24.9897 10.9899C24.9897 11.2912 24.8467 11.5459 24.6028 11.7614L20.267 20.312V22.3595C20.2654 22.5526 20.1688 22.7325 20.0089 22.8406C19.5683 23.1504 19.0455 23.322 18.507 23.3334ZM22.912 12.5029L19.1582 19.9072C19.1163 19.989 19.0942 20.0794 19.0937 20.1712V22.0075C18.7288 22.2101 18.2852 22.2101 17.9203 22.0075V20.1947C17.9198 20.1029 17.8977 20.0124 17.8558 19.9307L14.0813 12.4856C15.7295 12.9043 17.8968 12.9376 18.5363 12.9376C19.1656 12.9376 21.2744 12.9034 22.912 12.5029ZM23.678 10.9919C23.1458 11.3087 21.3756 11.7643 18.5363 11.7643C15.691 11.7643 13.9251 11.3067 13.3913 10.9899C13.9251 10.679 15.6851 10.2214 18.5363 10.2214C21.3842 10.2214 23.1493 10.6779 23.6796 10.9888L23.678 10.9919Z" fill="#232F3E"/>
<path fill-rule="evenodd" clip-rule="evenodd" d="M26.7199 4.26672H10.8799V5.44006H26.7199V4.26672ZM26.7199 6.61339H10.8799V7.78672H26.7199V6.61339ZM10.8799 24.8001H26.7199V25.9734H10.8799V24.8001ZM26.7199 27.1467H10.8799V28.3201H26.7199V27.1467Z" fill="#527FFF"/>
<mask id="mask0_14037_41790" style="mask-type:luminance" maskUnits="userSpaceOnUse" x="10" y="4" width="17" height="25">
<path fill-rule="evenodd" clip-rule="evenodd" d="M26.7199 4.26672H10.8799V5.44006H26.7199V4.26672ZM26.7199 6.61339H10.8799V7.78672H26.7199V6.61339ZM10.8799 24.8001H26.7199V25.9734H10.8799V24.8001ZM26.7199 27.1467H10.8799V28.3201H26.7199V27.1467Z" fill="white"/>
</mask>
<g mask="url(#mask0_14037_41790)">
</g>
</svg>
