<svg width="32" height="32" viewBox="0 0 32 32" fill="none" xmlns="http://www.w3.org/2000/svg">
<path fill-rule="evenodd" clip-rule="evenodd" d="M31.55 16.05C31.55 10.113 26.7371 5.30002 20.8 5.30002C19.0949 5.30002 17.4825 5.69701 16.0503 6.40385C14.6179 5.6971 13.0053 5.30002 11.3 5.30002C5.36295 5.30002 0.550011 10.113 0.550011 16.05C0.550011 21.9871 5.36295 26.8 11.3 26.8C13.0053 26.8 14.6179 26.4029 16.0502 25.6964C17.4825 26.403 19.0949 26.8 20.8 26.8C26.7371 26.8 31.55 21.9871 31.55 16.05ZM2.05001 16.05C2.05001 10.9414 6.19138 6.80002 11.3 6.80002C12.4147 6.80002 13.4834 6.99719 14.4726 7.35848C11.7919 9.31334 10.05 12.4783 10.05 16.05C10.05 19.6218 11.7919 22.7867 14.473 24.7415C13.4834 25.1028 12.4147 25.3 11.3 25.3C6.19138 25.3 2.05001 21.1587 2.05001 16.05ZM20.8 6.80002C19.6853 6.80002 18.6167 6.99719 17.627 7.35857C20.3081 9.31334 22.05 12.4783 22.05 16.05C22.05 19.6218 20.3081 22.7867 17.6274 24.7416C18.6167 25.1028 19.6853 25.3 20.8 25.3C25.9086 25.3 30.05 21.1587 30.05 16.05C30.05 10.9414 25.9086 6.80002 20.8 6.80002ZM16.0413 8.11634L16.0502 8.11127C18.7459 9.7277 20.55 12.6782 20.55 16.05C20.55 19.4219 18.7459 22.3723 16.0503 23.9891C13.3544 22.3727 11.55 19.4221 11.55 16.05C11.55 12.6817 13.3504 9.73386 16.0413 8.11634Z" fill="#232F3E"/>
</svg>
