<svg width="32" height="32" viewBox="0 0 32 32" fill="none" xmlns="http://www.w3.org/2000/svg">
<path fill-rule="evenodd" clip-rule="evenodd" d="M23.0047 13.8016C23.2773 13.6947 23.5678 13.6409 23.8605 13.6433C25.0793 13.6424 26.0955 14.5753 26.1986 15.7896C26.3017 17.004 25.4574 18.0949 24.256 18.2995C23.0546 18.5041 21.8967 17.7543 21.592 16.5742H9.12976C8.82508 17.7543 7.66721 18.5041 6.4658 18.2995C5.26439 18.0949 4.42003 17.004 4.52317 15.7896C4.6263 14.5753 5.64252 13.6424 6.86124 13.6433C7.15586 13.6415 7.44819 13.6952 7.72292 13.8016L13.4851 5.0792C12.9557 4.36874 12.872 3.42054 13.2687 2.62832C13.6655 1.83609 14.4749 1.33515 15.3609 1.3335C16.2448 1.334 17.0534 1.83157 17.4521 2.62044C17.8509 3.40932 17.7721 4.35541 17.2484 5.06748L23.0047 13.8016ZM5.68887 15.9881C5.68887 16.6356 6.21376 17.1604 6.86124 17.1604C7.50872 17.1604 8.0336 16.6356 8.0336 15.9881C8.0336 15.3406 7.50872 14.8157 6.86124 14.8157C6.21376 14.8157 5.68887 15.3406 5.68887 15.9881ZM15.3609 2.50586C16.0084 2.50586 16.5333 3.03075 16.5333 3.67823C16.5333 4.32571 16.0084 4.85059 15.3609 4.85059C14.7134 4.85059 14.1885 4.32571 14.1885 3.67823C14.1885 3.03075 14.7134 2.50586 15.3609 2.50586ZM9.12976 15.4019H21.592V15.4254C21.6702 15.0805 21.8289 14.7591 22.0551 14.4875L16.3339 5.80609C16.0298 5.95002 15.6974 6.02413 15.3609 6.02298C15.0309 6.02261 14.7049 5.95061 14.4054 5.81195L8.66081 14.4933C8.88206 14.758 9.04219 15.0682 9.12976 15.4019ZM23.8605 17.1604C23.2131 17.1604 22.6882 16.6356 22.6882 15.9881C22.6882 15.3406 23.2131 14.8157 23.8605 14.8157C24.508 14.8157 25.0329 15.3406 25.0329 15.9881C25.0329 16.6356 24.508 17.1604 23.8605 17.1604ZM13.7078 8.94803V14.2295H14.7747V11.6796L16.2695 14.2295H17.5356L15.7243 11.4217L17.3949 8.94803H16.2167L14.7747 11.2986V8.94803H13.7078Z" fill="#232F3E"/>
<path fill-rule="evenodd" clip-rule="evenodd" d="M30.226 20.83L30.6304 20.4959V20.5017V21.9848C29.8488 22.4903 28.9351 22.7534 28.0043 22.7409C26.9224 22.7569 25.869 22.394 25.0265 21.7151L24.2176 21.041C22.9171 20.032 21.0983 20.032 19.7978 21.041L18.9771 21.7151C17.2154 23.0986 14.7363 23.0986 12.9746 21.7151L12.1657 21.041C10.8652 20.032 9.04635 20.032 7.74585 21.041L6.93692 21.7151C5.31658 22.9819 3.07665 23.0991 1.33301 22.0082V20.5017L1.71989 20.83C3.02366 21.8358 4.8418 21.8358 6.14557 20.83L6.9545 20.15C8.71839 18.7729 11.1931 18.7729 12.957 20.15L13.7601 20.83C15.0639 21.8358 16.882 21.8358 18.1858 20.83L18.9947 20.15C20.7586 18.7729 23.2333 18.7729 24.9972 20.15L25.8003 20.83C27.104 21.8358 28.9222 21.8358 30.226 20.83ZM30.6304 24.6871L30.226 25.0271C28.9208 26.0288 27.1054 26.0288 25.8003 25.0271L24.9972 24.3471C23.2362 22.9615 20.7557 22.9615 18.9947 24.3471L18.1858 25.0271C16.8806 26.0288 15.0652 26.0288 13.7601 25.0271L12.957 24.3471C11.196 22.9615 8.71547 22.9615 6.9545 24.3471L6.14557 25.0271C4.84041 26.0288 3.02505 26.0288 1.71989 25.0271L1.33301 24.7047V26.2112C3.07801 27.2968 5.31468 27.1798 6.93692 25.9181L7.74585 25.2322C9.04846 24.2294 10.8631 24.2294 12.1657 25.2322L12.9687 25.9181C14.7345 27.2961 17.2114 27.2961 18.9771 25.9181L19.7978 25.2322C21.1004 24.2294 22.915 24.2294 24.2176 25.2322L25.0265 25.9181C25.868 26.5995 26.9216 26.9646 28.0043 26.9497C28.9357 26.9601 29.8493 26.695 30.6304 26.1877V24.7047V24.6871ZM30.6304 28.4093L30.226 28.7434C28.9208 29.7452 27.1054 29.7452 25.8003 28.7434L24.9972 28.0635C23.2355 26.68 20.7564 26.68 18.9947 28.0635L18.1858 28.7434C16.8806 29.7452 15.0652 29.7452 13.7601 28.7434L12.957 28.0635C11.1953 26.68 8.7162 26.68 6.9545 28.0635L6.14557 28.7434C4.84041 29.7452 3.02505 29.7452 1.71989 28.7434L1.33301 28.4152V29.9217C3.07665 31.0125 5.31658 30.8954 6.93692 29.6286L7.74585 28.9545C9.04492 27.9413 10.8666 27.9413 12.1657 28.9545L12.9687 29.6286C14.7323 31.013 17.2136 31.013 18.9771 29.6286L19.7978 28.9545C21.0968 27.9413 22.9185 27.9413 24.2176 28.9545L25.0265 29.6286C25.8674 30.3117 26.921 30.6788 28.0043 30.6661C28.9351 30.6786 29.8488 30.4155 30.6304 29.91V28.4152V28.4093Z" fill="#527FFF"/>
<mask id="mask0_14036_28851" style="mask-type:luminance" maskUnits="userSpaceOnUse" x="1" y="19" width="30" height="12">
<path fill-rule="evenodd" clip-rule="evenodd" d="M30.226 20.83L30.6304 20.4959V20.5017V21.9848C29.8488 22.4903 28.9351 22.7534 28.0043 22.7409C26.9224 22.7569 25.869 22.394 25.0265 21.7151L24.2176 21.041C22.9171 20.032 21.0983 20.032 19.7978 21.041L18.9771 21.7151C17.2154 23.0986 14.7363 23.0986 12.9746 21.7151L12.1657 21.041C10.8652 20.032 9.04635 20.032 7.74585 21.041L6.93692 21.7151C5.31658 22.9819 3.07665 23.0991 1.33301 22.0082V20.5017L1.71989 20.83C3.02366 21.8358 4.8418 21.8358 6.14557 20.83L6.9545 20.15C8.71839 18.7729 11.1931 18.7729 12.957 20.15L13.7601 20.83C15.0639 21.8358 16.882 21.8358 18.1858 20.83L18.9947 20.15C20.7586 18.7729 23.2333 18.7729 24.9972 20.15L25.8003 20.83C27.104 21.8358 28.9222 21.8358 30.226 20.83ZM30.6304 24.6871L30.226 25.0271C28.9208 26.0288 27.1054 26.0288 25.8003 25.0271L24.9972 24.3471C23.2362 22.9615 20.7557 22.9615 18.9947 24.3471L18.1858 25.0271C16.8806 26.0288 15.0652 26.0288 13.7601 25.0271L12.957 24.3471C11.196 22.9615 8.71547 22.9615 6.9545 24.3471L6.14557 25.0271C4.84041 26.0288 3.02505 26.0288 1.71989 25.0271L1.33301 24.7047V26.2112C3.07801 27.2968 5.31468 27.1798 6.93692 25.9181L7.74585 25.2322C9.04846 24.2294 10.8631 24.2294 12.1657 25.2322L12.9687 25.9181C14.7345 27.2961 17.2114 27.2961 18.9771 25.9181L19.7978 25.2322C21.1004 24.2294 22.915 24.2294 24.2176 25.2322L25.0265 25.9181C25.868 26.5995 26.9216 26.9646 28.0043 26.9497C28.9357 26.9601 29.8493 26.695 30.6304 26.1877V24.7047V24.6871ZM30.6304 28.4093L30.226 28.7434C28.9208 29.7452 27.1054 29.7452 25.8003 28.7434L24.9972 28.0635C23.2355 26.68 20.7564 26.68 18.9947 28.0635L18.1858 28.7434C16.8806 29.7452 15.0652 29.7452 13.7601 28.7434L12.957 28.0635C11.1953 26.68 8.7162 26.68 6.9545 28.0635L6.14557 28.7434C4.84041 29.7452 3.02505 29.7452 1.71989 28.7434L1.33301 28.4152V29.9217C3.07665 31.0125 5.31658 30.8954 6.93692 29.6286L7.74585 28.9545C9.04492 27.9413 10.8666 27.9413 12.1657 28.9545L12.9687 29.6286C14.7323 31.013 17.2136 31.013 18.9771 29.6286L19.7978 28.9545C21.0968 27.9413 22.9185 27.9413 24.2176 28.9545L25.0265 29.6286C25.8674 30.3117 26.921 30.6788 28.0043 30.6661C28.9351 30.6786 29.8488 30.4155 30.6304 29.91V28.4152V28.4093Z" fill="white"/>
</mask>
<g mask="url(#mask0_14036_28851)">
</g>
</svg>
