<svg width="32" height="32" viewBox="0 0 32 32" fill="none" xmlns="http://www.w3.org/2000/svg">
<path fill-rule="evenodd" clip-rule="evenodd" d="M30.9527 11.2859V12.3335C21.3476 12.3335 15.0959 11.0978 11.8389 8.55578C8.95271 6.3034 8.95271 3.43083 8.95271 1.3335H10.0003C10.0003 5.29664 10.0003 11.2859 30.9527 11.2859ZM6.85747 4.47634H5.80985C5.80985 9.39806 8.79714 14.4287 30.9527 14.4287V13.3811C9.72009 13.3811 6.85747 8.87949 6.85747 4.47634ZM2.66699 8.66683H3.71461C3.71461 11.2099 7.25347 15.4764 30.9527 15.4764V16.524C7.25347 16.524 3.71461 20.7904 3.71461 23.3335H2.66699C2.66699 19.4594 7.92552 17.0059 18.3252 16.0002C7.92552 14.9944 2.66699 12.5409 2.66699 8.66683ZM8.95271 30.6668H10.0003C10.0003 26.7037 10.0003 20.7144 30.9527 20.7144V19.6668C21.3476 19.6668 15.0959 20.9025 11.8389 23.4445C8.95271 25.6969 8.95271 28.5695 8.95271 30.6668ZM6.85747 27.524H5.80985C5.80985 22.6023 8.79714 17.5716 30.9527 17.5716V18.6192C9.72009 18.6192 6.85747 23.1208 6.85747 27.524Z" fill="#232F3E"/>
<mask id="mask0_14036_28812" style="mask-type:luminance" maskUnits="userSpaceOnUse" x="2" y="1" width="29" height="30">
<path fill-rule="evenodd" clip-rule="evenodd" d="M30.9527 11.2859V12.3335C21.3476 12.3335 15.0959 11.0978 11.8389 8.55578C8.95271 6.3034 8.95271 3.43083 8.95271 1.3335H10.0003C10.0003 5.29664 10.0003 11.2859 30.9527 11.2859ZM6.85747 4.47634H5.80985C5.80985 9.39806 8.79714 14.4287 30.9527 14.4287V13.3811C9.72009 13.3811 6.85747 8.87949 6.85747 4.47634ZM2.66699 8.66683H3.71461C3.71461 11.2099 7.25347 15.4764 30.9527 15.4764V16.524C7.25347 16.524 3.71461 20.7904 3.71461 23.3335H2.66699C2.66699 19.4594 7.92552 17.0059 18.3252 16.0002C7.92552 14.9944 2.66699 12.5409 2.66699 8.66683ZM8.95271 30.6668H10.0003C10.0003 26.7037 10.0003 20.7144 30.9527 20.7144V19.6668C21.3476 19.6668 15.0959 20.9025 11.8389 23.4445C8.95271 25.6969 8.95271 28.5695 8.95271 30.6668ZM6.85747 27.524H5.80985C5.80985 22.6023 8.79714 17.5716 30.9527 17.5716V18.6192C9.72009 18.6192 6.85747 23.1208 6.85747 27.524Z" fill="white"/>
</mask>
<g mask="url(#mask0_14036_28812)">
</g>
</svg>
