<svg width="32" height="32" viewBox="0 0 32 32" fill="none" xmlns="http://www.w3.org/2000/svg">
<path d="M22.4691 12.8202C20.8281 5.5804 17.4033 3.65255 16.5343 2.28979C16.062 1.54847 15.5803 0.421875 15.5803 0.421875C15.5333 1.06402 15.4498 1.4707 14.9018 1.95873C13.8045 2.93692 9.14111 6.73697 8.7494 14.9635C8.3841 22.6335 14.386 27.3639 15.1836 27.8527C15.793 28.1524 16.5393 27.8584 16.896 27.5837C19.7885 25.5973 23.7455 20.3011 22.4655 12.8202" fill="#10AA50"/>
<path d="M15.8287 23.7671C15.6781 25.6664 15.5697 26.7716 15.1865 27.8547C15.1865 27.8547 15.4391 29.6619 15.6146 31.5769H16.2403C16.3897 30.2282 16.6177 28.8893 16.9232 27.5671C16.1126 27.1697 15.8593 25.4331 15.8287 23.7671Z" fill="#B8C4C2"/>
<path d="M16.9233 27.5684C16.1042 27.1903 15.8674 25.4187 15.831 23.7669C16.0328 21.0438 16.0911 18.3118 16.0058 15.5825C15.963 14.1505 16.0272 2.31731 15.6533 0.584961C15.8046 0.923868 16.1699 1.72012 16.5352 2.28877C17.4078 3.65225 20.8297 5.5801 22.4693 12.8206C23.7471 20.2823 19.8137 25.5692 16.9233 27.5684Z" fill="#12924F"/>
</svg>
