<svg width="249" height="144" viewBox="0 0 249 144" fill="none" xmlns="http://www.w3.org/2000/svg">
<path d="M162.557 75.5604C162.851 74.4881 164.317 74.4389 164.717 75.4168L164.764 75.5565L183.012 141.228H198.743V143.518H95.584V141.228H111.431L127.108 104.647C127.271 104.269 127.622 104.01 128.024 103.962L128.161 103.953H141.734C142.053 103.953 142.355 104.086 142.57 104.316L142.657 104.421L151.383 116.296L162.557 75.5604ZM152.967 119.183C152.726 120.06 151.625 120.306 151.029 119.668L150.939 119.559L141.153 106.243H128.915L113.923 141.228H180.635L163.667 80.1658L152.967 119.183ZM89.3203 29.7166C91.101 29.7169 92.5537 31.1692 92.5537 32.95V79.8338H107.278C110.054 79.8338 112.361 82.0225 112.49 84.8045L112.496 85.0516V104.68H110.205V85.0516C110.205 83.4922 108.983 82.2292 107.469 82.1307L107.278 82.1248H92.5537V127.864H103.311V130.154H71.4658L71.4648 130.153V130.154H53.6104C51.8297 130.154 50.3772 128.701 50.377 126.921V62.6033C50.377 60.8225 51.8296 59.3702 53.6104 59.3699H70.3203V32.95C70.3203 31.169 71.7727 29.7166 73.5537 29.7166H89.3203ZM53.6104 61.66C53.1342 61.6602 52.7336 62.0244 52.6748 62.4861L52.668 62.6033V126.921C52.6682 127.436 53.0946 127.864 53.6104 127.864H70.3193V61.66H53.6104ZM73.5537 32.0067C73.0376 32.0067 72.6104 32.4339 72.6104 32.95V127.863H90.2627V32.95C90.2627 32.4738 89.8992 32.0734 89.4375 32.0145L89.3203 32.0067H73.5537Z" fill="#232F3E"/>
<path fill-rule="evenodd" clip-rule="evenodd" d="M182.619 74.7618C210.341 48.1819 191.379 0.588817 153.327 0.481323C139.596 0.481319 128.062 6.42422 120.071 16.5119C113.059 25.3641 109.468 36.7598 110.419 46.3236C111.933 61.6867 118.875 72.4192 129.479 79.2429C133.706 81.9631 138.228 83.8655 142.75 85.0961C144.334 85.5271 145.807 85.8438 147.132 86.0637L147.793 86.167C148 86.1972 148.194 86.2233 148.375 86.2456L148.84 86.2968L149.037 84.015L148.993 84.0109L148.398 83.9392L147.823 83.8553L147.507 83.8043C146.256 83.5966 144.858 83.2962 143.351 82.8861C139.042 81.7135 134.733 79.9008 130.718 77.3169C120.975 71.0472 114.522 61.3247 112.836 47.3555H152.871L180.702 73.423C180.543 73.5722 180.383 73.7208 180.221 73.8686L181.764 75.5608L182.619 74.7618ZM152.178 45.0647V2.78623C139.679 3.10583 129.212 8.66075 121.866 17.934C115.468 26.012 112.073 36.3205 112.615 45.0651L152.178 45.0647ZM154.469 43.4187V2.79016C165.878 3.12782 175.407 8.01423 182.194 15.3131L154.469 43.4187ZM154.964 46.1779L183.71 17.0377C196.158 32.0222 197.851 55.6168 182.331 71.8106L154.964 46.1779Z" fill="#527FFF"/>
</svg>
