<svg width="32" height="32" viewBox="0 0 32 32" fill="none" xmlns="http://www.w3.org/2000/svg">
<path fill-rule="evenodd" clip-rule="evenodd" d="M6.90444 7.73132L7.72545 6.91031L3.33307 2.50621H7.19766V1.33334H1.91977C1.59589 1.33334 1.33334 1.5959 1.33334 1.91978V7.19766H2.5062V3.33894L6.90444 7.73132ZM30.6549 1.9315V7.20939H29.4821V3.33894L25.1483 7.67267L24.3215 6.8458L28.6493 2.51793H24.7906V1.34507H30.0685C30.3924 1.34507 30.6549 1.60762 30.6549 1.9315ZM22.4156 10.5638C22.4156 8.86313 19.0788 8.07731 15.9648 8.07731C12.8509 8.07731 9.51406 8.86313 9.51406 10.5638C9.51151 10.6488 9.52139 10.7338 9.54339 10.816V21.4011C9.51406 23.1603 12.8567 23.911 15.9941 23.911C19.1316 23.911 22.4449 23.1369 22.4449 21.4362V10.5638H22.4156ZM15.9765 9.25604C19.3954 9.25604 21.2544 10.1885 21.2544 10.5696C21.2544 10.9508 19.4072 11.8833 15.9765 11.8833C12.5459 11.8833 10.6987 10.9567 10.6987 10.5696C10.6987 10.1826 12.5576 9.25604 15.9765 9.25604ZM15.9765 22.744C19.4013 22.744 21.2544 21.8174 21.2544 21.4421V19.6066C19.9995 20.2692 17.9411 20.5859 15.9765 20.5859C14.012 20.5859 11.936 20.2634 10.6987 19.589V21.4421C10.6987 21.8174 12.5518 22.744 15.9765 22.744ZM21.2544 18.1053C21.2544 18.4806 19.4072 19.4189 15.9765 19.4189C12.5459 19.4189 10.6987 18.4806 10.6987 18.1053H10.7162V15.8651C11.9536 16.5337 14.0296 16.8562 15.9941 16.8562C17.9587 16.8562 20.0171 16.5395 21.272 15.8769L21.2544 18.1053ZM15.9765 15.6892C19.4072 15.6892 21.2544 14.7509 21.2544 14.3697L21.272 12.0592C20.0464 12.7336 17.9704 13.0503 15.9941 13.0503C14.0179 13.0503 11.9653 12.7453 10.7162 12.0827V14.3697H10.6987C10.6987 14.7509 12.5459 15.6892 15.9765 15.6892ZM3.33307 29.4938H7.19766V30.6667H1.91977C1.59589 30.6667 1.33334 30.4041 1.33334 30.0802V24.8024H2.5062V28.6552L6.90444 24.2628L7.72545 25.0897L3.33307 29.4938ZM30.6549 30.0802V24.8024H29.4821V28.6552L25.1483 24.3274L24.3215 25.1484L28.6552 29.4938H24.7906V30.6667H30.0685C30.3924 30.6667 30.6549 30.4041 30.6549 30.0802Z" fill="#232F3E"/>
<path fill-rule="evenodd" clip-rule="evenodd" d="M24.2863 20.2692L24.6616 21.3834C28.4675 20.0933 30.6549 18.076 30.6549 15.8534C30.6549 13.6308 28.4675 11.6018 24.6616 10.3233L24.2863 11.4317C27.541 12.5342 29.4821 14.1879 29.4821 15.8534C29.4821 17.5189 27.541 19.1726 24.2863 20.2692ZM1.36266 15.8534C1.36266 17.9939 3.41517 19.9643 6.99827 21.2544L7.39704 20.1519C4.35346 19.0553 2.53552 17.4485 2.53552 15.8534C2.53552 14.2583 4.35346 12.6515 7.39704 11.5548L6.99827 10.4524C3.41517 11.7484 1.36266 13.7129 1.36266 15.8534Z" fill="#527FFF"/>
<mask id="mask0_12_13367" style="mask-type:luminance" maskUnits="userSpaceOnUse" x="1" y="10" width="30" height="12">
<path fill-rule="evenodd" clip-rule="evenodd" d="M24.2863 20.2692L24.6616 21.3834C28.4675 20.0933 30.6549 18.076 30.6549 15.8534C30.6549 13.6308 28.4675 11.6018 24.6616 10.3233L24.2863 11.4317C27.541 12.5342 29.4821 14.1879 29.4821 15.8534C29.4821 17.5189 27.541 19.1726 24.2863 20.2692ZM1.36266 15.8534C1.36266 17.9939 3.41517 19.9643 6.99827 21.2544L7.39704 20.1519C4.35346 19.0553 2.53552 17.4485 2.53552 15.8534C2.53552 14.2583 4.35346 12.6515 7.39704 11.5548L6.99827 10.4524C3.41517 11.7484 1.36266 13.7129 1.36266 15.8534Z" fill="white"/>
</mask>
<g mask="url(#mask0_12_13367)">
</g>
</svg>
