<svg width="32" height="32" viewBox="0 0 32 32" fill="none" xmlns="http://www.w3.org/2000/svg">
<path fill-rule="evenodd" clip-rule="evenodd" d="M2.5 6.75H29.5C29.9142 6.75 30.25 7.08579 30.25 7.5V25.5C30.25 25.9142 29.9142 26.25 29.5 26.25H2.5C2.08579 26.25 1.75 25.9142 1.75 25.5V7.5C1.75 7.08579 2.08579 6.75 2.5 6.75ZM28.75 24.75V8.25H3.25V24.75H28.75Z" fill="#527FFF"/>
<path fill-rule="evenodd" clip-rule="evenodd" d="M13.25 22.75V10.25H12.25V22.75H13.25ZM6.47451 19.5L6.89751 18.078H9.03051L9.47151 19.5H10.9385L8.74251 13.263H7.25751L5.06151 19.5H6.47451ZM8.75152 17.106H7.18552L7.95952 14.496L8.75152 17.106Z" fill="#232F3E"/>
</svg>
