<svg width="32" height="32" viewBox="0 0 32 32" fill="none" xmlns="http://www.w3.org/2000/svg">
<path fill-rule="evenodd" clip-rule="evenodd" d="M3.02253 6.3806C2.99228 6.47783 2.98501 6.58374 3.00586 6.6907L5.83306 27.6668C5.91419 30.0946 12.2239 30.9996 16.2119 30.9996C18.3076 31.011 20.3983 30.7933 22.4467 30.3505C23.1089 30.2015 23.7596 30.0054 24.3939 29.7638C25.8231 29.1959 26.5845 28.4907 26.5845 27.6668L27.7734 18.9993C28.4189 19.1385 28.9965 19.2165 29.4804 19.2165C29.9757 19.2739 30.4716 19.1146 30.8409 18.7796C31.0634 18.5175 31.1552 18.1687 31.0906 17.831C30.9371 17.0754 30.0747 16.2752 28.2868 15.2562L29.4616 6.6907C29.4798 6.59736 29.4766 6.50482 29.4554 6.41815V6.34744C29.4554 3.5889 22.5341 1.66666 16.2681 1.66666C10.0021 1.66666 3.02459 3.5889 3.02459 6.34744C3.02343 6.35847 3.02274 6.36953 3.02253 6.3806ZM17.5652 13.679C20.8085 15.2256 24.2407 16.6464 26.6785 17.4265L27.8916 8.41435C25.4635 9.83269 20.633 10.5851 16.2119 10.5851L16.2007 10.5851L16.1807 10.5851C12.7762 10.5851 9.14877 10.1394 6.55631 9.28714C5.75993 9.0263 5.0615 8.72738 4.49791 8.39151L7.0563 27.567V27.6481C7.0563 28.3846 10.6075 29.7826 16.187 29.7826C18.1885 29.7934 20.1851 29.5841 22.1409 29.1585C22.742 29.0152 23.3322 28.8296 23.9071 28.603C25.0617 28.1474 25.3176 27.7355 25.3176 27.6169C25.3148 27.5899 25.3148 27.5628 25.3176 27.5358L26.5102 18.6766C23.6323 17.8437 19.9212 16.1964 17.0275 14.8088C16.8007 14.9809 16.5183 15.0835 16.2119 15.0849C15.4639 15.0849 14.8576 14.4786 14.8576 13.7306C14.8576 12.9826 15.4639 12.3763 16.2119 12.3763C16.9426 12.3763 17.5381 12.9549 17.5652 13.679ZM16.2586 13.6225C16.2442 13.6156 16.2283 13.6119 16.2119 13.612V13.6245C16.1827 13.6228 16.1541 13.6332 16.1328 13.6533C16.1116 13.6734 16.0995 13.7014 16.0996 13.7306C16.0996 13.7738 16.1286 13.8013 16.1655 13.813L16.2586 13.6225ZM29.8486 17.9932C29.5517 18.1195 28.8758 18.0363 27.9386 17.7947L28.103 16.5964C29.4542 17.4011 29.7735 17.8377 29.8486 17.9932ZM16.2252 9.3369C9.27285 9.33502 4.56595 7.65114 4.25407 6.4473C4.24598 6.40582 4.23404 6.36608 4.21867 6.32838L4.21663 6.30999C4.304 5.09923 9.22819 2.91487 16.2119 2.91487C23.1956 2.91487 28.1136 5.09923 28.1822 6.30999V6.4785C27.7955 7.68225 23.1143 9.33477 16.2252 9.3369Z" fill="#232F3E"/>
<mask id="mask0_11_3733" style="mask-type:luminance" maskUnits="userSpaceOnUse" x="2" y="1" width="30" height="30">
<path fill-rule="evenodd" clip-rule="evenodd" d="M3.02253 6.3806C2.99228 6.47783 2.98501 6.58374 3.00586 6.6907L5.83306 27.6668C5.91419 30.0946 12.2239 30.9996 16.2119 30.9996C18.3076 31.011 20.3983 30.7933 22.4467 30.3505C23.1089 30.2015 23.7596 30.0054 24.3939 29.7638C25.8231 29.1959 26.5845 28.4907 26.5845 27.6668L27.7734 18.9993C28.4189 19.1385 28.9965 19.2165 29.4804 19.2165C29.9757 19.2739 30.4716 19.1146 30.8409 18.7796C31.0634 18.5175 31.1552 18.1687 31.0906 17.831C30.9371 17.0754 30.0747 16.2752 28.2868 15.2562L29.4616 6.6907C29.4798 6.59736 29.4766 6.50482 29.4554 6.41815V6.34744C29.4554 3.5889 22.5341 1.66666 16.2681 1.66666C10.0021 1.66666 3.02459 3.5889 3.02459 6.34744C3.02343 6.35847 3.02274 6.36953 3.02253 6.3806ZM17.5652 13.679C20.8085 15.2256 24.2407 16.6464 26.6785 17.4265L27.8916 8.41435C25.4635 9.83269 20.633 10.5851 16.2119 10.5851L16.2007 10.5851L16.1807 10.5851C12.7762 10.5851 9.14877 10.1394 6.55631 9.28714C5.75993 9.0263 5.0615 8.72738 4.49791 8.39151L7.0563 27.567V27.6481C7.0563 28.3846 10.6075 29.7826 16.187 29.7826C18.1885 29.7934 20.1851 29.5841 22.1409 29.1585C22.742 29.0152 23.3322 28.8296 23.9071 28.603C25.0617 28.1474 25.3176 27.7355 25.3176 27.6169C25.3148 27.5899 25.3148 27.5628 25.3176 27.5358L26.5102 18.6766C23.6323 17.8437 19.9212 16.1964 17.0275 14.8088C16.8007 14.9809 16.5183 15.0835 16.2119 15.0849C15.4639 15.0849 14.8576 14.4786 14.8576 13.7306C14.8576 12.9826 15.4639 12.3763 16.2119 12.3763C16.9426 12.3763 17.5381 12.9549 17.5652 13.679ZM16.2586 13.6225C16.2442 13.6156 16.2283 13.6119 16.2119 13.612V13.6245C16.1827 13.6228 16.1541 13.6332 16.1328 13.6533C16.1116 13.6734 16.0995 13.7014 16.0996 13.7306C16.0996 13.7738 16.1286 13.8013 16.1655 13.813L16.2586 13.6225ZM29.8486 17.9932C29.5517 18.1195 28.8758 18.0363 27.9386 17.7947L28.103 16.5964C29.4542 17.4011 29.7735 17.8377 29.8486 17.9932ZM16.2252 9.3369C9.27285 9.33502 4.56595 7.65114 4.25407 6.4473C4.24598 6.40582 4.23404 6.36608 4.21867 6.32838L4.21663 6.30999C4.304 5.09923 9.22819 2.91487 16.2119 2.91487C23.1956 2.91487 28.1136 5.09923 28.1822 6.30999V6.4785C27.7955 7.68225 23.1143 9.33477 16.2252 9.3369Z" fill="white"/>
</mask>
<g mask="url(#mask0_11_3733)">
</g>
</svg>
