<svg width="32" height="32" viewBox="0 0 32 32" fill="none" xmlns="http://www.w3.org/2000/svg">
<path fill-rule="evenodd" clip-rule="evenodd" d="M3 1.75H27C27.4142 1.75 27.75 2.08579 27.75 2.5V12C27.75 12.4142 27.4142 12.75 27 12.75H3C2.58579 12.75 2.25 12.4142 2.25 12V2.5C2.25 2.08579 2.58579 1.75 3 1.75ZM26.25 11.25V3.25H3.75V11.25H26.25Z" fill="#527FFF"/>
<path fill-rule="evenodd" clip-rule="evenodd" d="M27.7466 16.5278C27.7102 16.1475 27.3898 15.85 27 15.85H3L2.92777 15.8535C2.54744 15.8898 2.25 16.2102 2.25 16.6V26.1L2.25343 26.1723C2.28978 26.5526 2.61015 26.85 3 26.85H17V25.3495H3.75V17.3495H26.25V18.5H27.75V16.6L27.7466 16.5278ZM20.6757 30.163L20.6953 30.2339C20.9037 30.8743 21.817 30.9352 22.095 30.2935L23.1725 27.805L25.8502 30.9832C26.1162 31.299 26.5874 31.3403 26.9044 31.0757L29.04 29.2929L29.0963 29.2408C29.362 28.969 29.3839 28.5348 29.1352 28.2367L26.497 25.074L29.1656 24.47C29.876 24.3092 29.9633 23.3322 29.2927 23.048L19.2927 18.8095C18.7291 18.5706 18.1322 19.071 18.269 19.6676L20.6757 30.163ZM20.0595 20.7634L26.564 23.5204L24.97 23.8816L24.906 23.899C24.4065 24.0576 24.215 24.6804 24.5597 25.0935L27.5025 28.6214L26.516 29.4454L23.5397 25.9127L23.4911 25.8602C23.1224 25.4963 22.4897 25.609 22.2779 26.0978L21.627 27.5999L20.0595 20.7634Z" fill="#232F3E"/>
</svg>
