<svg width="32" height="32" viewBox="0 0 32 32" fill="none" xmlns="http://www.w3.org/2000/svg">
<path fill-rule="evenodd" clip-rule="evenodd" d="M3 1.75H14.5C14.9142 1.75 15.25 2.08579 15.25 2.5V12C15.25 12.4142 14.9142 12.75 14.5 12.75H3C2.58579 12.75 2.25 12.4142 2.25 12V2.5C2.25 2.08579 2.58579 1.75 3 1.75ZM13.75 11.25V3.25H3.75V11.25H13.75ZM17.5 1.75H29C29.4142 1.75 29.75 2.08579 29.75 2.5V12C29.75 12.4142 29.4142 12.75 29 12.75H17.5C17.0858 12.75 16.75 12.4142 16.75 12V2.5C16.75 2.08579 17.0858 1.75 17.5 1.75ZM28.25 11.25V3.25H18.25V11.25H28.25ZM14.5 14.25H3C2.58579 14.25 2.25 14.5858 2.25 15V24.5C2.25 24.9142 2.58579 25.25 3 25.25H14.5C14.9142 25.25 15.25 24.9142 15.25 24.5V15C15.25 14.5858 14.9142 14.25 14.5 14.25ZM13.75 15.75V23.75H3.75V15.75H13.75Z" fill="#527FFF"/>
<path fill-rule="evenodd" clip-rule="evenodd" d="M17.5 14.25H29C29.4142 14.25 29.75 14.5858 29.75 15V19.5H28.25V15.75H18.25V23.75H20V25.25H17.5C17.0858 25.25 16.75 24.9142 16.75 24.5V15C16.75 14.5858 17.0858 14.25 17.5 14.25ZM22.1757 29.663L22.1953 29.7339C22.4037 30.3743 23.317 30.4352 23.595 29.7935L24.6725 27.305L27.3502 30.4832C27.6162 30.799 28.0874 30.8403 28.4044 30.5757L30.54 28.7929L30.5963 28.7408C30.862 28.469 30.8839 28.0348 30.6352 27.7367L27.997 24.574L30.6656 23.97C31.376 23.8092 31.4633 22.8322 30.7927 22.548L20.7927 18.3095C20.2291 18.0706 19.6322 18.571 19.769 19.1676L22.1757 29.663ZM21.5595 20.2635L28.064 23.0205L26.47 23.3817L26.406 23.399C25.9065 23.5577 25.715 24.1804 26.0597 24.5936L29.0025 28.1215L28.016 28.9455L25.0397 25.4128L24.9911 25.3602C24.6224 24.9963 23.9897 25.1091 23.7779 25.5979L23.127 27.1L21.5595 20.2635Z" fill="#232F3E"/>
</svg>
