<svg width="32" height="32" viewBox="0 0 32 32" fill="none" xmlns="http://www.w3.org/2000/svg">
<path d="M25.5 4.5V6H13.8747V17.0725L17.0868 13.8757L18.1451 14.9387L13.1233 19.9381L8.19671 15.0336L9.255 13.9705L12.3747 17.0765V6H8.50001V4.5H25.5Z" fill="#527FFF"/>
<path fill-rule="evenodd" clip-rule="evenodd" d="M27.2981 1.96967C27.5727 1.69508 28.0072 1.67792 28.3018 1.91818L28.3588 1.96967L31.1872 4.7981C31.4618 5.07268 31.4789 5.50722 31.2387 5.8018L31.1872 5.85876L28.3588 8.68718C28.0842 8.96177 27.6496 8.97893 27.3551 8.73867L27.2981 8.68718L24.4697 5.85876C24.1951 5.58417 24.1779 5.14964 24.4182 4.85506L24.4697 4.7981L27.2981 1.96967ZM18.2466 21.9278C18.2102 21.5474 17.8898 21.25 17.5 21.25H10L9.92777 21.2534C9.54744 21.2898 9.25 21.6102 9.25 22V29.5L9.25343 29.5722C9.28978 29.9526 9.61015 30.25 10 30.25H17.5L17.5722 30.2466C17.9526 30.2102 18.25 29.8898 18.25 29.5V22L18.2466 21.9278ZM10.75 22.75H16.75V28.75H10.75V22.75ZM6.74657 2.92777C6.71022 2.54744 6.38985 2.25 6 2.25H2L1.92777 2.25343C1.54744 2.28978 1.25 2.61015 1.25 3V7L1.25343 7.07223C1.28978 7.45256 1.61015 7.75 2 7.75H6L6.07223 7.74657C6.45256 7.71022 6.75 7.38985 6.75 7V3L6.74657 2.92777ZM27.8278 3.56065L26.0601 5.32842L27.8278 7.09619L29.5956 5.32842L27.8278 3.56065ZM2.75 3.74949H5.25V6.24949H2.75V3.74949Z" fill="#232F3E"/>
</svg>
