<svg width="32" height="32" viewBox="0 0 32 32" fill="none" xmlns="http://www.w3.org/2000/svg">
<path fill-rule="evenodd" clip-rule="evenodd" d="M20 1.25H12C11.5858 1.25 11.25 1.58579 11.25 2V10C11.25 10.4142 11.5858 10.75 12 10.75H20C20.4142 10.75 20.75 10.4142 20.75 10V2C20.75 1.58579 20.4142 1.25 20 1.25ZM19.25 2.75V9.25H12.75V2.75H19.25ZM15.9457 11.5135L15.8581 11.4253L15.8574 11.4259L15.8568 11.4253L15.7701 11.5126L8.65752 18.5735L8.64816 16.3286L7.14816 16.3319L7.16372 20.7836L11.7498 20.7995L11.7532 19.2995L10.0625 19.2924L15.8574 13.5395L21.6524 19.2924L19.9617 19.2995L19.9651 20.7995L24.5512 20.7836L24.5667 16.3319L23.0667 16.3286L23.0573 18.5735L15.9457 11.5135Z" fill="#527FFF"/>
<path fill-rule="evenodd" clip-rule="evenodd" d="M5.5 21.75C2.87665 21.75 0.75 23.8766 0.75 26.5C0.75 29.1234 2.87665 31.25 5.5 31.25C8.12335 31.25 10.25 29.1234 10.25 26.5C10.25 23.8766 8.12335 21.75 5.5 21.75ZM5.5 23.25C7.29493 23.25 8.75 24.7051 8.75 26.5C8.75 28.2949 7.29493 29.75 5.5 29.75C3.70507 29.75 2.25 28.2949 2.25 26.5C2.25 24.7051 3.70507 23.25 5.5 23.25ZM26.5 21.75C23.8766 21.75 21.75 23.8766 21.75 26.5C21.75 29.1234 23.8766 31.25 26.5 31.25C29.1234 31.25 31.25 29.1234 31.25 26.5C31.25 23.8766 29.1234 21.75 26.5 21.75ZM26.5 23.25C28.2949 23.25 29.75 24.7051 29.75 26.5C29.75 28.2949 28.2949 29.75 26.5 29.75C24.7051 29.75 23.25 28.2949 23.25 26.5C23.25 24.7051 24.7051 23.25 26.5 23.25Z" fill="#232F3E"/>
</svg>
