<svg width="32" height="32" viewBox="0 0 32 32" fill="none" xmlns="http://www.w3.org/2000/svg">
<path fill-rule="evenodd" clip-rule="evenodd" d="M16.05 8.11104C14.6616 7.27855 13.0367 6.79995 11.3 6.79995C6.19138 6.79995 2.05002 10.9413 2.05002 16.05C2.05002 21.1586 6.19138 25.3 11.3 25.3C15.4508 25.3 18.963 22.566 20.1342 18.8006C20.4044 17.9317 20.55 17.0078 20.55 16.05C20.55 16.0499 20.55 16.0499 20.55 16.0499C20.55 15.7306 20.5338 15.4151 20.5023 15.1042C20.4356 14.4476 20.3002 13.8112 20.1035 13.2025C19.4094 11.0551 17.9515 9.25116 16.05 8.11101C16.05 8.11102 16.05 8.11103 16.05 8.11104Z" fill="#527FFF"/>
<path fill-rule="evenodd" clip-rule="evenodd" d="M11.3 5.29995C5.36296 5.29995 0.550018 10.1129 0.550018 16.05C0.550018 21.987 5.36296 26.8 11.3 26.8C13.0052 26.8 14.6177 26.4029 16.05 25.6963C17.4824 26.4029 19.0948 26.8 20.8 26.8C26.7371 26.8 31.55 21.987 31.55 16.05C31.55 10.1129 26.7371 5.29995 20.8 5.29995C19.0948 5.29995 17.4824 5.69697 16.05 6.40362C14.6177 5.69697 13.0052 5.29995 11.3 5.29995ZM14.4727 7.35839C13.4831 6.99708 12.4146 6.79995 11.3 6.79995C6.19138 6.79995 2.05002 10.9413 2.05002 16.05C2.05002 21.1586 6.19138 25.3 11.3 25.3C12.4146 25.3 13.4831 25.1028 14.4727 24.7415C11.792 22.7867 10.05 19.6217 10.05 16.05C10.05 12.4782 11.792 9.31325 14.4727 7.35839ZM16.05 23.9888C13.3543 22.3724 11.55 19.4219 11.55 16.05C11.55 12.678 13.3543 9.72746 16.05 8.11106C18.7458 9.72746 20.55 12.678 20.55 16.05C20.55 19.4219 18.7458 22.3724 16.05 23.9888ZM17.6274 24.7415C20.3081 22.7867 22.05 19.6217 22.05 16.05C22.05 12.4782 20.3081 9.31325 17.6274 7.35839C18.6169 6.99709 19.6854 6.79995 20.8 6.79995C25.9087 6.79995 30.05 10.9413 30.05 16.05C30.05 21.1586 25.9087 25.3 20.8 25.3C19.6854 25.3 18.6169 25.1028 17.6274 24.7415Z" fill="#232F3E"/>
</svg>
