<svg width="32" height="32" viewBox="0 0 32 32" fill="none" xmlns="http://www.w3.org/2000/svg">
<path fill-rule="evenodd" clip-rule="evenodd" d="M18.05 9.72542C16.3623 7.92493 13.9625 6.80001 11.3 6.80001C6.19138 6.80001 2.05002 10.9414 2.05002 16.05C2.05002 21.1586 6.19138 25.3 11.3 25.3C13.0367 25.3 14.6616 24.8214 16.05 23.9889C13.3543 22.3725 11.55 19.422 11.55 16.05C11.55 12.6781 13.3543 9.72753 16.05 8.11114C16.7902 8.55495 17.4632 9.09934 18.05 9.72542Z" fill="#527FFF"/>
<path fill-rule="evenodd" clip-rule="evenodd" d="M11.3 5.30001C5.36296 5.30001 0.550018 10.113 0.550018 16.05C0.550018 21.9871 5.36296 26.8 11.3 26.8C13.0052 26.8 14.6177 26.403 16.05 25.6963C17.4824 26.403 19.0948 26.8 20.8 26.8C26.7371 26.8 31.55 21.9871 31.55 16.05C31.55 10.113 26.7371 5.30001 20.8 5.30001C19.0948 5.30001 17.4824 5.69704 16.05 6.40369C14.6177 5.69704 13.0052 5.30001 11.3 5.30001ZM14.4727 7.35845C13.4831 6.99715 12.4146 6.80001 11.3 6.80001C6.19138 6.80001 2.05002 10.9414 2.05002 16.05C2.05002 21.1586 6.19138 25.3 11.3 25.3C12.4146 25.3 13.4831 25.1029 14.4727 24.7416C11.792 22.7867 10.05 19.6218 10.05 16.05C10.05 12.4782 11.792 9.31331 14.4727 7.35845ZM16.05 23.9889C13.3543 22.3725 11.55 19.422 11.55 16.05C11.55 12.6781 13.3543 9.72752 16.05 8.11112C18.7458 9.72752 20.55 12.6781 20.55 16.05C20.55 19.422 18.7458 22.3725 16.05 23.9889ZM17.6274 24.7416C20.3081 22.7867 22.05 19.6218 22.05 16.05C22.05 12.4782 20.3081 9.31331 17.6274 7.35845C18.6169 6.99715 19.6854 6.80001 20.8 6.80001C25.9087 6.80001 30.05 10.9414 30.05 16.05C30.05 21.1586 25.9087 25.3 20.8 25.3C19.6854 25.3 18.6169 25.1029 17.6274 24.7416Z" fill="#232F3E"/>
</svg>
