<svg width="32" height="32" viewBox="0 0 32 32" fill="none" xmlns="http://www.w3.org/2000/svg">
<path fill-rule="evenodd" clip-rule="evenodd" d="M11.3 5.3C5.36296 5.3 0.550018 10.1129 0.550018 16.05C0.550018 21.9871 5.36296 26.8 11.3 26.8C13.0052 26.8 14.6177 26.403 16.05 25.6963C17.4824 26.403 19.0948 26.8 20.8 26.8C26.7371 26.8 31.55 21.9871 31.55 16.05C31.55 10.1129 26.7371 5.3 20.8 5.3C19.0948 5.3 17.4824 5.69702 16.05 6.40367C14.6177 5.69702 13.0052 5.3 11.3 5.3ZM14.4727 7.35843C13.4831 6.99713 12.4146 6.8 11.3 6.8C6.19138 6.8 2.05002 10.9414 2.05002 16.05C2.05002 21.1586 6.19138 25.3 11.3 25.3C12.4146 25.3 13.4831 25.1029 14.4727 24.7416C11.792 22.7867 10.05 19.6218 10.05 16.05C10.05 12.4782 11.792 9.3133 14.4727 7.35843ZM16.05 23.9889C13.3543 22.3725 11.55 19.4219 11.55 16.05C11.55 12.678 13.3543 9.7275 16.05 8.11111C18.7458 9.7275 20.55 12.678 20.55 16.05C20.55 19.4219 18.7458 22.3725 16.05 23.9889ZM17.6274 24.7416C20.3081 22.7867 22.05 19.6218 22.05 16.05C22.05 12.4782 20.3081 9.3133 17.6274 7.35843C18.6169 6.99713 19.6854 6.8 20.8 6.8C25.9087 6.8 30.05 10.9414 30.05 16.05C30.05 21.1586 25.9087 25.3 20.8 25.3C19.6854 25.3 18.6169 25.1029 17.6274 24.7416Z" fill="#232F3E"/>
<path fill-rule="evenodd" clip-rule="evenodd" d="M16.05 8.11111C18.7458 9.7275 20.55 12.678 20.55 16.05C20.55 19.4219 18.7458 22.3725 16.05 23.9889C13.3543 22.3725 11.55 19.4219 11.55 16.05C11.55 12.678 13.3543 9.7275 16.05 8.11111Z" fill="#527FFF"/>
</svg>
